<svg xmlns="http://www.w3.org/2000/svg" xmlns:xlink="http://www.w3.org/1999/xlink" width="500" zoomAndPan="magnify" viewBox="0 0 375 374.999991" height="500" preserveAspectRatio="xMidYMid meet" version="1.0"><defs><clipPath id="c23d0993bc"><path d="M 28.074219 28.074219 L 346.925781 28.074219 L 346.925781 346.925781 L 28.074219 346.925781 Z M 28.074219 28.074219 " clip-rule="nonzero"/></clipPath><clipPath id="6c482b2b0c"><path d="M 187.5 28.074219 C 99.449219 28.074219 28.074219 99.449219 28.074219 187.5 C 28.074219 275.550781 99.449219 346.925781 187.5 346.925781 C 275.550781 346.925781 346.925781 275.550781 346.925781 187.5 C 346.925781 99.449219 275.550781 28.074219 187.5 28.074219 Z M 187.5 28.074219 " clip-rule="nonzero"/></clipPath><clipPath id="6719a3be11"><path d="M 0.0742188 0.0742188 L 318.925781 0.0742188 L 318.925781 318.925781 L 0.0742188 318.925781 Z M 0.0742188 0.0742188 " clip-rule="nonzero"/></clipPath><clipPath id="80c7accb50"><path d="M 159.5 0.0742188 C 71.449219 0.0742188 0.0742188 71.449219 0.0742188 159.5 C 0.0742188 247.550781 71.449219 318.925781 159.5 318.925781 C 247.550781 318.925781 318.925781 247.550781 318.925781 159.5 C 318.925781 71.449219 247.550781 0.0742188 159.5 0.0742188 Z M 159.5 0.0742188 " clip-rule="nonzero"/></clipPath><clipPath id="589b143108"><rect x="0" width="319" y="0" height="319"/></clipPath><clipPath id="e61efbed57"><path d="M 28.074219 28.074219 L 346.824219 28.074219 L 346.824219 346.824219 L 28.074219 346.824219 Z M 28.074219 28.074219 " clip-rule="nonzero"/></clipPath><clipPath id="cebb673a2f"><path d="M 187.496094 28.074219 C 99.449219 28.074219 28.074219 99.449219 28.074219 187.496094 C 28.074219 275.542969 99.449219 346.917969 187.496094 346.917969 C 275.542969 346.917969 346.917969 275.542969 346.917969 187.496094 C 346.917969 99.449219 275.542969 28.074219 187.496094 28.074219 Z M 187.496094 28.074219 " clip-rule="nonzero"/></clipPath><clipPath id="d361d839a4"><path d="M 117 135.65625 L 258 135.65625 L 258 196 L 117 196 Z M 117 135.65625 " clip-rule="nonzero"/></clipPath><clipPath id="8b8d9c2e90"><path d="M 112.5 147 L 262.5 147 L 262.5 239.15625 L 112.5 239.15625 Z M 112.5 147 " clip-rule="nonzero"/></clipPath></defs><g clip-path="url(#c23d0993bc)"><g clip-path="url(#6c482b2b0c)"><g transform="matrix(1, 0, 0, 1, 28, 28)"><g clip-path="url(#589b143108)"><g clip-path="url(#6719a3be11)"><g clip-path="url(#80c7accb50)"><path fill="#9fb350" d="M 0.0742188 0.0742188 L 318.925781 0.0742188 L 318.925781 318.925781 L 0.0742188 318.925781 Z M 0.0742188 0.0742188 " fill-opacity="1" fill-rule="nonzero"/></g></g></g></g></g></g><g clip-path="url(#e61efbed57)"><g clip-path="url(#cebb673a2f)"><path stroke-linecap="butt" transform="matrix(0.75, 0, 0, 0.75, 28.073206, 28.073201)" fill="none" stroke-linejoin="miter" d="M 212.563864 0.00135652 C 95.168023 0.00135652 0.00135052 95.168029 0.00135052 212.56387 C 0.00135052 329.959712 95.168023 425.126384 212.563864 425.126384 C 329.959706 425.126384 425.126378 329.959712 425.126378 212.56387 C 425.126378 95.168029 329.959706 0.00135652 212.563864 0.00135652 Z M 212.563864 0.00135652 " stroke="#ffffff" stroke-width="18" stroke-opacity="1" stroke-miterlimit="4"/></g></g><g clip-path="url(#d361d839a4)"><path fill="#ffffff" d="M 187.53125 195.988281 C 193.78125 195.53125 227.480469 167.796875 257.386719 140.476562 C 254.351562 137.523438 250.210938 135.699219 245.640625 135.699219 L 129.371094 135.699219 C 124.671875 135.699219 120.425781 137.621094 117.367188 140.722656 C 147.355469 167.902344 181.226562 195.546875 187.53125 195.988281 " fill-opacity="1" fill-rule="nonzero"/></g><g clip-path="url(#8b8d9c2e90)"><path fill="#ffffff" d="M 231.636719 173.429688 C 195.8125 203.753906 189.988281 203.753906 187.503906 203.753906 C 185.023438 203.753906 179.207031 203.753906 143.371094 173.675781 C 130.84375 163.160156 118.921875 152.550781 113.28125 147.480469 C 112.769531 149.089844 112.492188 150.800781 112.492188 152.578125 L 112.492188 222.472656 C 112.492188 231.785156 120.042969 239.339844 129.359375 239.339844 L 245.628906 239.339844 C 254.949219 239.339844 262.507812 231.78125 262.507812 222.457031 L 262.507812 152.566406 C 262.507812 150.660156 262.175781 148.835938 261.59375 147.128906 C 255.90625 152.285156 244.070312 162.902344 231.636719 173.429688 " fill-opacity="1" fill-rule="nonzero"/></g></svg>