<svg xmlns="http://www.w3.org/2000/svg" xmlns:xlink="http://www.w3.org/1999/xlink" width="500" zoomAndPan="magnify" viewBox="0 0 375 374.999991" height="500" preserveAspectRatio="xMidYMid meet" version="1.0"><defs><clipPath id="c20a910e9d"><path d="M 1.074219 1.074219 L 319.925781 1.074219 L 319.925781 319.925781 L 1.074219 319.925781 Z M 1.074219 1.074219 " clip-rule="nonzero"/></clipPath><clipPath id="fa46b3bec2"><path d="M 160.5 1.074219 C 72.449219 1.074219 1.074219 72.449219 1.074219 160.5 C 1.074219 248.550781 72.449219 319.925781 160.5 319.925781 C 248.550781 319.925781 319.925781 248.550781 319.925781 160.5 C 319.925781 72.449219 248.550781 1.074219 160.5 1.074219 Z M 160.5 1.074219 " clip-rule="nonzero"/></clipPath><clipPath id="b48218f55c"><path d="M 0.0742188 0.0742188 L 318.925781 0.0742188 L 318.925781 318.925781 L 0.0742188 318.925781 Z M 0.0742188 0.0742188 " clip-rule="nonzero"/></clipPath><clipPath id="65b078673c"><path d="M 159.5 0.0742188 C 71.449219 0.0742188 0.0742188 71.449219 0.0742188 159.5 C 0.0742188 247.550781 71.449219 318.925781 159.5 318.925781 C 247.550781 318.925781 318.925781 247.550781 318.925781 159.5 C 318.925781 71.449219 247.550781 0.0742188 159.5 0.0742188 Z M 159.5 0.0742188 " clip-rule="nonzero"/></clipPath><clipPath id="1978f9e99f"><rect x="0" width="319" y="0" height="319"/></clipPath><clipPath id="da16906975"><path d="M 119.925781 74.667969 L 201.175781 74.667969 L 201.175781 246.195312 L 119.925781 246.195312 Z M 119.925781 74.667969 " clip-rule="nonzero"/></clipPath><clipPath id="b658ddc4d6"><rect x="0" width="321" y="0" height="321"/></clipPath></defs><g transform="matrix(1, 0, 0, 1, 27, 27)"><g clip-path="url(#b658ddc4d6)"><g clip-path="url(#c20a910e9d)"><g clip-path="url(#fa46b3bec2)"><g transform="matrix(1, 0, 0, 1, 1, 1)"><g clip-path="url(#1978f9e99f)"><g clip-path="url(#b48218f55c)"><g clip-path="url(#65b078673c)"><path fill="#ffffff" d="M 0.0742188 0.0742188 L 318.925781 0.0742188 L 318.925781 318.925781 L 0.0742188 318.925781 Z M 0.0742188 0.0742188 " fill-opacity="1" fill-rule="nonzero"/></g></g></g></g></g></g><g clip-path="url(#da16906975)"><path fill="#9fb350" d="M 182.351562 103.113281 L 201.070312 103.113281 L 201.070312 74.886719 L 177.167969 74.886719 L 177.167969 74.996094 C 145.738281 76.148438 139.257812 93.75 138.714844 112.363281 L 138.644531 112.363281 L 138.644531 131.949219 L 119.925781 131.949219 L 119.925781 160.210938 L 138.644531 160.210938 L 138.644531 246.109375 L 172.234375 246.109375 L 172.234375 160.210938 L 196.320312 160.210938 L 201.070312 131.949219 L 172.234375 131.949219 L 172.234375 114.417969 C 172.234375 108.1875 176.410156 103.113281 182.351562 103.113281 Z M 182.351562 103.113281 " fill-opacity="1" fill-rule="nonzero"/></g></g></g></svg>