<svg xmlns="http://www.w3.org/2000/svg" xmlns:xlink="http://www.w3.org/1999/xlink" width="2360" zoomAndPan="magnify" viewBox="0 0 1770 615.000004" height="820" preserveAspectRatio="xMidYMid meet" version="1.0"><path fill="#424242" d="M 65.082031 61.398438 L 65.082031 88.355469 L 60.589844 88.355469 L 60.589844 61.398438 Z M 65.082031 92.847656 L 65.082031 119.804688 L 60.589844 119.804688 L 60.589844 92.847656 Z M 65.082031 124.296875 L 65.082031 151.253906 L 60.589844 151.253906 L 60.589844 124.296875 Z M 65.082031 155.746094 L 65.082031 182.703125 L 60.589844 182.703125 L 60.589844 155.746094 Z M 65.082031 187.195312 L 65.082031 214.152344 L 60.589844 214.152344 L 60.589844 187.195312 Z M 65.082031 218.644531 L 65.082031 233.183594 C 65.082031 237.230469 65.414062 241.234375 66.070312 245.195312 L 61.640625 245.933594 C 60.941406 241.730469 60.589844 237.480469 60.589844 233.183594 L 60.589844 218.644531 Z M 66.914062 249.464844 C 68.878906 258.042969 72.304688 266.003906 77.191406 273.351562 L 73.453125 275.839844 C 68.261719 268.035156 64.621094 259.578125 62.535156 250.46875 Z M 79.71875 276.914062 C 85.039062 283.960938 91.421875 289.84375 98.867188 294.5625 L 96.460938 298.359375 C 88.558594 293.34375 81.78125 287.101562 76.136719 279.625 Z M 102.617188 296.789062 C 110.328125 301.050781 118.542969 303.8125 127.261719 305.066406 L 126.621094 309.515625 C 117.359375 308.179688 108.632812 305.25 100.445312 300.71875 Z M 131.597656 305.5625 C 133.628906 305.730469 135.667969 305.816406 137.714844 305.816406 L 158.375 305.816406 L 158.375 310.308594 L 137.714844 310.308594 C 135.542969 310.308594 133.378906 310.21875 131.222656 310.039062 Z M 162.867188 305.816406 L 189.824219 305.816406 L 189.824219 310.308594 L 162.867188 310.308594 Z M 194.316406 305.816406 L 221.269531 305.816406 L 221.269531 310.308594 L 194.316406 310.308594 Z M 225.765625 305.816406 L 252.71875 305.816406 L 252.71875 310.308594 L 225.765625 310.308594 Z M 257.214844 305.816406 L 284.167969 305.816406 L 284.167969 310.308594 L 257.214844 310.308594 Z M 288.660156 305.816406 L 315.617188 305.816406 L 315.617188 310.308594 L 288.660156 310.308594 Z M 320.109375 305.816406 L 347.066406 305.816406 L 347.066406 310.308594 L 320.109375 310.308594 Z M 351.558594 305.816406 L 378.515625 305.816406 L 378.515625 310.308594 L 351.558594 310.308594 Z M 383.007812 305.816406 L 409.964844 305.816406 L 409.964844 310.308594 L 383.007812 310.308594 Z M 414.457031 305.816406 L 441.414062 305.816406 L 441.414062 310.308594 L 414.457031 310.308594 Z M 445.90625 305.816406 L 472.863281 305.816406 L 472.863281 310.308594 L 445.90625 310.308594 Z M 477.355469 305.816406 L 504.3125 305.816406 L 504.3125 310.308594 L 477.355469 310.308594 Z M 508.804688 305.816406 L 535.761719 305.816406 L 535.761719 310.308594 L 508.804688 310.308594 Z M 540.253906 305.816406 L 567.207031 305.816406 L 567.207031 310.308594 L 540.253906 310.308594 Z M 571.703125 305.816406 L 598.65625 305.816406 L 598.65625 310.308594 L 571.703125 310.308594 Z M 603.152344 305.816406 L 630.105469 305.816406 L 630.105469 310.308594 L 603.152344 310.308594 Z M 634.597656 305.816406 L 661.554688 305.816406 L 661.554688 310.308594 L 634.597656 310.308594 Z M 666.046875 305.816406 L 693.003906 305.816406 L 693.003906 310.308594 L 666.046875 310.308594 Z M 697.496094 305.816406 L 724.453125 305.816406 L 724.453125 310.308594 L 697.496094 310.308594 Z M 728.945312 305.816406 L 755.902344 305.816406 L 755.902344 310.308594 L 728.945312 310.308594 Z M 760.394531 305.816406 L 787.351562 305.816406 L 787.351562 310.308594 L 760.394531 310.308594 Z M 791.84375 305.816406 L 818.800781 305.816406 L 818.800781 310.308594 L 791.84375 310.308594 Z M 823.292969 305.816406 L 850.25 305.816406 L 850.25 310.308594 L 823.292969 310.308594 Z M 854.742188 305.816406 L 881.699219 305.816406 L 881.699219 310.308594 L 854.742188 310.308594 Z M 886.191406 305.816406 L 913.144531 305.816406 L 913.144531 310.308594 L 886.191406 310.308594 Z M 917.640625 305.816406 L 944.59375 305.816406 L 944.59375 310.308594 L 917.640625 310.308594 Z M 949.089844 305.816406 L 976.042969 305.816406 L 976.042969 310.308594 L 949.089844 310.308594 Z M 980.535156 305.816406 L 1007.492188 305.816406 L 1007.492188 310.308594 L 980.535156 310.308594 Z M 1011.984375 305.816406 L 1038.941406 305.816406 L 1038.941406 310.308594 L 1011.984375 310.308594 Z M 1043.433594 305.816406 L 1070.390625 305.816406 L 1070.390625 310.308594 L 1043.433594 310.308594 Z M 1074.882812 305.816406 L 1101.839844 305.816406 L 1101.839844 310.308594 L 1074.882812 310.308594 Z M 1106.332031 305.816406 L 1133.289062 305.816406 L 1133.289062 310.308594 L 1106.332031 310.308594 Z M 1137.78125 305.816406 L 1164.738281 305.816406 L 1164.738281 310.308594 L 1137.78125 310.308594 Z M 1169.230469 305.816406 L 1196.1875 305.816406 L 1196.1875 310.308594 L 1169.230469 310.308594 Z M 1200.679688 305.816406 L 1227.636719 305.816406 L 1227.636719 310.308594 L 1200.679688 310.308594 Z M 1232.128906 305.816406 L 1259.082031 305.816406 L 1259.082031 310.308594 L 1232.128906 310.308594 Z M 1263.578125 305.816406 L 1290.53125 305.816406 L 1290.53125 310.308594 L 1263.578125 310.308594 Z M 1295.027344 305.816406 L 1321.980469 305.816406 L 1321.980469 310.308594 L 1295.027344 310.308594 Z M 1326.472656 305.816406 L 1353.429688 305.816406 L 1353.429688 310.308594 L 1326.472656 310.308594 Z M 1357.921875 305.816406 L 1384.878906 305.816406 L 1384.878906 310.308594 L 1357.921875 310.308594 Z M 1389.371094 305.816406 L 1416.328125 305.816406 L 1416.328125 310.308594 L 1389.371094 310.308594 Z M 1420.820312 305.816406 L 1447.777344 305.816406 L 1447.777344 310.308594 L 1420.820312 310.308594 Z M 1452.269531 305.816406 L 1479.226562 305.816406 L 1479.226562 310.308594 L 1452.269531 310.308594 Z M 1483.71875 305.816406 L 1510.675781 305.816406 L 1510.675781 310.308594 L 1483.71875 310.308594 Z M 1515.167969 305.816406 L 1542.125 305.816406 L 1542.125 310.308594 L 1515.167969 310.308594 Z M 1546.617188 305.816406 L 1573.574219 305.816406 L 1573.574219 310.308594 L 1546.617188 310.308594 Z M 1578.066406 305.816406 L 1605.019531 305.816406 L 1605.019531 310.308594 L 1578.066406 310.308594 Z M 1609.515625 305.816406 L 1632.285156 305.816406 C 1633.730469 305.816406 1635.175781 305.855469 1636.613281 305.933594 L 1636.367188 310.421875 C 1635.007812 310.34375 1633.648438 310.308594 1632.285156 310.308594 L 1609.515625 310.308594 Z M 1641.214844 306.324219 C 1650.519531 307.398438 1659.328125 310.082031 1667.636719 314.378906 L 1665.578125 318.367188 C 1657.75 314.324219 1649.457031 311.800781 1640.699219 310.789062 Z M 1671.683594 316.625 C 1679.722656 321.410156 1686.671875 327.460938 1692.527344 334.777344 L 1689.019531 337.585938 C 1683.503906 330.691406 1676.957031 324.992188 1669.386719 320.484375 Z M 1695.316406 338.484375 C 1700.726562 346.140625 1704.605469 354.492188 1706.949219 363.535156 L 1702.597656 364.664062 C 1700.390625 356.148438 1696.742188 348.285156 1691.644531 341.074219 Z M 1707.972656 368.058594 C 1708.929688 372.949219 1709.410156 377.910156 1709.410156 382.9375 L 1709.410156 395.367188 L 1704.917969 395.367188 L 1704.917969 382.9375 C 1704.917969 378.203125 1704.464844 373.527344 1703.566406 368.917969 Z M 1709.410156 399.859375 L 1709.410156 426.8125 L 1704.917969 426.8125 L 1704.917969 399.859375 Z M 1709.410156 431.308594 L 1709.410156 458.261719 L 1704.917969 458.261719 L 1704.917969 431.308594 Z M 1709.410156 462.753906 L 1709.410156 489.710938 L 1704.917969 489.710938 L 1704.917969 462.753906 Z M 1709.410156 494.203125 L 1709.410156 521.160156 L 1704.917969 521.160156 L 1704.917969 494.203125 Z M 1709.410156 525.652344 L 1709.410156 550.355469 L 1704.917969 550.355469 L 1704.917969 525.652344 Z M 1709.410156 525.652344 " fill-opacity="1" fill-rule="nonzero"/><path stroke-linecap="round" transform="matrix(0.748782, 0, 0, 0.748782, 60.590495, 61.40018)" fill="none" stroke-linejoin="round" d="M 2208.000291 641.001828 L 2199.001307 653.000473 L 2190.002323 641.001828 " stroke="#424242" stroke-width="6" stroke-opacity="1" stroke-miterlimit="4"/></svg>