<svg xmlns="http://www.w3.org/2000/svg" xmlns:xlink="http://www.w3.org/1999/xlink" width="2360" zoomAndPan="magnify" viewBox="0 0 1770 615.000004" height="820" preserveAspectRatio="xMidYMid meet" version="1.0"><path fill="#424242" d="M 1709.410156 61.398438 L 1709.410156 88.355469 L 1704.917969 88.355469 L 1704.917969 61.398438 Z M 1709.410156 92.847656 L 1709.410156 119.804688 L 1704.917969 119.804688 L 1704.917969 92.847656 Z M 1709.410156 124.296875 L 1709.410156 151.253906 L 1704.917969 151.253906 L 1704.917969 124.296875 Z M 1709.410156 155.746094 L 1709.410156 182.703125 L 1704.917969 182.703125 L 1704.917969 155.746094 Z M 1709.410156 187.195312 L 1709.410156 214.152344 L 1704.917969 214.152344 L 1704.917969 187.195312 Z M 1709.410156 218.644531 L 1709.410156 233.183594 C 1709.410156 237.476562 1709.058594 241.726562 1708.359375 245.933594 L 1703.929688 245.195312 C 1704.585938 241.234375 1704.917969 237.230469 1704.917969 233.183594 L 1704.917969 218.644531 Z M 1707.464844 250.46875 C 1705.378906 259.578125 1701.738281 268.035156 1696.546875 275.839844 L 1692.808594 273.351562 C 1697.695312 266.003906 1701.121094 258.042969 1703.085938 249.464844 Z M 1693.863281 279.625 C 1688.21875 287.101562 1681.441406 293.34375 1673.539062 298.359375 L 1671.132812 294.5625 C 1678.578125 289.839844 1684.960938 283.957031 1690.28125 276.914062 Z M 1669.554688 300.71875 C 1661.367188 305.25 1652.640625 308.179688 1643.378906 309.515625 L 1642.738281 305.066406 C 1651.457031 303.8125 1659.671875 301.050781 1667.382812 296.789062 Z M 1638.777344 310.039062 C 1636.621094 310.21875 1634.457031 310.308594 1632.285156 310.308594 L 1611.625 310.308594 L 1611.625 305.816406 L 1632.285156 305.816406 C 1634.332031 305.816406 1636.371094 305.730469 1638.402344 305.5625 Z M 1607.132812 310.308594 L 1580.175781 310.308594 L 1580.175781 305.816406 L 1607.132812 305.816406 Z M 1575.683594 310.308594 L 1548.726562 310.308594 L 1548.726562 305.816406 L 1575.683594 305.816406 Z M 1544.234375 310.308594 L 1517.28125 310.308594 L 1517.28125 305.816406 L 1544.234375 305.816406 Z M 1512.785156 310.308594 L 1485.832031 310.308594 L 1485.832031 305.816406 L 1512.785156 305.816406 Z M 1481.339844 310.308594 L 1454.382812 310.308594 L 1454.382812 305.816406 L 1481.339844 305.816406 Z M 1449.890625 310.308594 L 1422.933594 310.308594 L 1422.933594 305.816406 L 1449.890625 305.816406 Z M 1418.441406 310.308594 L 1391.484375 310.308594 L 1391.484375 305.816406 L 1418.441406 305.816406 Z M 1386.992188 310.308594 L 1360.035156 310.308594 L 1360.035156 305.816406 L 1386.992188 305.816406 Z M 1355.542969 310.308594 L 1328.585938 310.308594 L 1328.585938 305.816406 L 1355.542969 305.816406 Z M 1324.09375 310.308594 L 1297.136719 310.308594 L 1297.136719 305.816406 L 1324.09375 305.816406 Z M 1292.644531 310.308594 L 1265.6875 310.308594 L 1265.6875 305.816406 L 1292.644531 305.816406 Z M 1261.195312 310.308594 L 1234.238281 310.308594 L 1234.238281 305.816406 L 1261.195312 305.816406 Z M 1229.746094 310.308594 L 1202.792969 310.308594 L 1202.792969 305.816406 L 1229.746094 305.816406 Z M 1198.296875 310.308594 L 1171.34375 310.308594 L 1171.34375 305.816406 L 1198.296875 305.816406 Z M 1166.847656 310.308594 L 1139.894531 310.308594 L 1139.894531 305.816406 L 1166.847656 305.816406 Z M 1135.402344 310.308594 L 1108.445312 310.308594 L 1108.445312 305.816406 L 1135.402344 305.816406 Z M 1103.953125 310.308594 L 1076.996094 310.308594 L 1076.996094 305.816406 L 1103.953125 305.816406 Z M 1072.503906 310.308594 L 1045.546875 310.308594 L 1045.546875 305.816406 L 1072.503906 305.816406 Z M 1041.054688 310.308594 L 1014.097656 310.308594 L 1014.097656 305.816406 L 1041.054688 305.816406 Z M 1009.605469 310.308594 L 982.648438 310.308594 L 982.648438 305.816406 L 1009.605469 305.816406 Z M 978.15625 310.308594 L 951.199219 310.308594 L 951.199219 305.816406 L 978.15625 305.816406 Z M 946.707031 310.308594 L 919.75 310.308594 L 919.75 305.816406 L 946.707031 305.816406 Z M 915.257812 310.308594 L 888.300781 310.308594 L 888.300781 305.816406 L 915.257812 305.816406 Z M 883.808594 310.308594 L 856.855469 310.308594 L 856.855469 305.816406 L 883.808594 305.816406 Z M 852.359375 310.308594 L 825.40625 310.308594 L 825.40625 305.816406 L 852.359375 305.816406 Z M 820.910156 310.308594 L 793.957031 310.308594 L 793.957031 305.816406 L 820.910156 305.816406 Z M 789.464844 310.308594 L 762.507812 310.308594 L 762.507812 305.816406 L 789.464844 305.816406 Z M 758.015625 310.308594 L 731.058594 310.308594 L 731.058594 305.816406 L 758.015625 305.816406 Z M 726.566406 310.308594 L 699.609375 310.308594 L 699.609375 305.816406 L 726.566406 305.816406 Z M 695.117188 310.308594 L 668.160156 310.308594 L 668.160156 305.816406 L 695.117188 305.816406 Z M 663.667969 310.308594 L 636.710938 310.308594 L 636.710938 305.816406 L 663.667969 305.816406 Z M 632.21875 310.308594 L 605.261719 310.308594 L 605.261719 305.816406 L 632.21875 305.816406 Z M 600.769531 310.308594 L 573.8125 310.308594 L 573.8125 305.816406 L 600.769531 305.816406 Z M 569.320312 310.308594 L 542.363281 310.308594 L 542.363281 305.816406 L 569.320312 305.816406 Z M 537.871094 310.308594 L 510.917969 310.308594 L 510.917969 305.816406 L 537.871094 305.816406 Z M 506.421875 310.308594 L 479.46875 310.308594 L 479.46875 305.816406 L 506.421875 305.816406 Z M 474.972656 310.308594 L 448.019531 310.308594 L 448.019531 305.816406 L 474.972656 305.816406 Z M 443.527344 310.308594 L 416.570312 310.308594 L 416.570312 305.816406 L 443.527344 305.816406 Z M 412.078125 310.308594 L 385.121094 310.308594 L 385.121094 305.816406 L 412.078125 305.816406 Z M 380.628906 310.308594 L 353.671875 310.308594 L 353.671875 305.816406 L 380.628906 305.816406 Z M 349.179688 310.308594 L 322.222656 310.308594 L 322.222656 305.816406 L 349.179688 305.816406 Z M 317.730469 310.308594 L 290.773438 310.308594 L 290.773438 305.816406 L 317.730469 305.816406 Z M 286.28125 310.308594 L 259.324219 310.308594 L 259.324219 305.816406 L 286.28125 305.816406 Z M 254.832031 310.308594 L 227.875 310.308594 L 227.875 305.816406 L 254.832031 305.816406 Z M 223.382812 310.308594 L 196.425781 310.308594 L 196.425781 305.816406 L 223.382812 305.816406 Z M 191.933594 310.308594 L 164.980469 310.308594 L 164.980469 305.816406 L 191.933594 305.816406 Z M 160.484375 310.308594 L 137.714844 310.308594 C 136.351562 310.308594 134.992188 310.34375 133.632812 310.421875 L 133.386719 305.933594 C 134.824219 305.855469 136.269531 305.816406 137.714844 305.816406 L 160.484375 305.816406 Z M 129.300781 310.789062 C 120.542969 311.800781 112.25 314.324219 104.421875 318.367188 L 102.363281 314.378906 C 110.671875 310.082031 119.480469 307.398438 128.789062 306.324219 Z M 100.613281 320.484375 C 93.042969 324.992188 86.496094 330.691406 80.980469 337.585938 L 77.472656 334.777344 C 83.328125 327.460938 90.277344 321.410156 98.316406 316.625 Z M 78.355469 341.074219 C 73.257812 348.285156 69.609375 356.148438 67.402344 364.660156 L 63.054688 363.535156 C 65.398438 354.492188 69.273438 346.140625 74.683594 338.484375 Z M 66.433594 368.917969 C 65.535156 373.527344 65.082031 378.199219 65.082031 382.9375 L 65.082031 395.363281 L 60.589844 395.363281 L 60.589844 382.9375 C 60.589844 377.910156 61.070312 372.949219 62.027344 368.054688 Z M 65.082031 399.859375 L 65.082031 426.8125 L 60.589844 426.8125 L 60.589844 399.859375 Z M 65.082031 431.304688 L 65.082031 458.261719 L 60.589844 458.261719 L 60.589844 431.304688 Z M 65.082031 462.753906 L 65.082031 489.710938 L 60.589844 489.710938 L 60.589844 462.753906 Z M 65.082031 494.203125 L 65.082031 521.160156 L 60.589844 521.160156 L 60.589844 494.203125 Z M 65.082031 525.652344 L 65.082031 550.355469 L 60.589844 550.355469 L 60.589844 525.652344 Z M 65.082031 525.652344 " fill-opacity="1" fill-rule="nonzero"/><path stroke-linecap="round" transform="matrix(0.748782, 0, 0, 0.748782, 60.590495, 61.40018)" fill="none" stroke-linejoin="round" d="M 11.997775 641.001828 L 2.998791 653.000473 L -6.000193 641.001828 " stroke="#424242" stroke-width="6" stroke-opacity="1" stroke-miterlimit="4"/></svg>