<?xml version="1.0" encoding="UTF-8"?>
<svg id="Capa_2" data-name="Capa 2" xmlns="http://www.w3.org/2000/svg" viewBox="0 0 72.06 72.06">
  <defs>
    <style>
      .cls-1 {
        fill: #9fb350;
      }
    </style>
  </defs>
  <g id="Capa_1-2" data-name="Capa 1">
    <path class="cls-1" d="M41.66,3.85l6.47,16.64c.61,1.58,1.86,2.83,3.44,3.44l16.64,6.47c5.13,2,5.13,9.26,0,11.26l-16.64,6.47c-1.58.61-2.83,1.86-3.44,3.44l-6.47,16.64c-2,5.13-9.26,5.13-11.26,0l-6.47-16.64c-.61-1.58-1.86-2.83-3.44-3.44l-16.64-6.47c-5.13-2-5.13-9.26,0-11.26l16.64-6.47c1.58-.61,2.83-1.86,3.44-3.44L30.4,3.85c2-5.13,9.26-5.13,11.26,0Z"/>
  </g>
</svg>