<?xml version="1.0" encoding="UTF-8"?>
<svg id="Capa_2" data-name="Capa 2" xmlns="http://www.w3.org/2000/svg" viewBox="0 0 80.14 65.31">
  <defs>
    <style>
      .cls-1 {
        fill: #b9c85e;
      }

      .cls-2 {
        fill: #9fb350;
      }
    </style>
  </defs>
  <g id="Capa_1-2" data-name="Capa 1">
    <g>
      <g>
        <path class="cls-1" d="M47.85,7.3c-12.43-.46-23.54,4.44-33.98,11.36-.56,1.64-.93,3.45-1.06,5.44,1.28-1.78,2.9-3.42,4.92-4.85,13.43-9.5,28.62-7.16,33.65-4.03,3.67,2.28,10.25,7.98,8.82,13.83-.82,3.35-2.55,5.03-4.85,6.59-3.48,2.37-8.26,4.46-13.18,11.63-.71,1.03-1.41,2.16-2.12,3.42-7.58,13.44-21.23,5.88-25.4,2.33-1.35-1.15-2.6-2.94-3.6-5.13-.84-.9-1.6-1.94-2.27-3.13-3.34-5.9-3.82-13.36-1.84-20.22-13.14,14.89-6.42,37.45,10.1,40.32,18.65,3.23,28.57-11.56,31.88-20.71,1.23-3.39,5.55-5.53,9.82-8.15,1.54-.94,3.07-1.95,4.44-3.09,2.79-2.33,4.95-5.24,5.23-9.42,0-.08,0-.16.01-.24.38-6.31-7.81-15.47-20.58-15.94Z"/>
        <path class="cls-1" d="M15.94,45.9c2.9,1.75,6.07,2.12,9.15,1.52,5.58-1.08,10.85-5.34,13.67-10.35.23-.41.46-.85.67-1.32h0c5.3-.51,14.57-3.4,12.67-10.93-2.23-8.85-18.26-8.25-25.89-4.11-5.62,3.05-10.17,9.05-12.06,14.54-1.57,4.57-1.29,8.79,1.79,10.65ZM27.94,20.78c9.18-3.53,16.36-.41,19.11,2.9,2.75,3.31,2.3,7.19-1.9,8.64h0s0,0,0,0c-5.03,2.05-10.64,1.12-13.07.54.04-.29.03-.58-.02-.87,1.4-.37,2.79-.73,4.19-1.1.08.07.17.12.27.17.61.28,1.37.11,1.83-.36.22-.23.35-.51.42-.82.08-.34.13-.72.01-1.05-.26-.73-1.1-.98-1.8-.79-.31.09-.59.26-.8.51-.18.21-.28.46-.34.72-1.38.55-2.76,1.11-4.13,1.67-.22-.44-.53-.83-.92-1.13.64-1.55,1.29-3.1,1.93-4.65.04-.09.07-.18.11-.27.14-.04.28-.09.4-.17.58-.36.9-1.1.76-1.77-.07-.34-.25-.63-.53-.85-.32-.25-.7-.48-1.11-.5-.69,0-1.27.49-1.48,1.13-.21.63-.03,1.32.5,1.73.02.02.04.03.07.05-.53,1.6-1.07,3.19-1.6,4.79-.44-.14-.89-.19-1.34-.14-.31-.73-.62-1.46-.92-2.19.38-.38.38-.99.09-1.43-.31-.45-.88-.88-1.46-.81-.48.06-.83.45-.88.92-.06.6.37,1.1.86,1.4.08.05.17.08.26.12.39.75.78,1.5,1.17,2.25-.24.11-.46.25-.66.44-.64.58-.96,1.38-.97,2.2-.9,0-1.8,0-2.71.01-.15-.19-.36-.33-.59-.42-.41-.17-.87-.28-1.31-.23-.54.08-1.07.45-1.16,1.02-.04.26.02.53.17.75.17.26.44.42.72.52.63.24,1.37.35,1.94-.08.14-.11.25-.24.33-.39.92-.07,1.83-.14,2.75-.21.03.09.05.18.09.27.3.76.87,1.4,1.58,1.77-.46.87-.93,1.75-1.39,2.62-.04.08-.08.15-.12.23-.42.13-.8.45-1.03.83-.34.59-.45,1.42-.04,2.01.37.53,1.04.7,1.63.44.66-.29,1.09-.98,1.15-1.69.04-.48-.11-.98-.44-1.3.31-.96.63-1.92.94-2.89.24.06.48.1.73.09.77-.01,1.47-.33,2-.85,1.12.57,3.26,1.21,7.24,1.19-3.05,6.34-10.74,9.92-17.58,6.72-8.49-3.97-2.78-17.93,7.06-21.71Z"/>
      </g>
      <path class="cls-2" d="M65.66,4.04C49.76-3.73,30.1.67,17.75,9.13c-5.35,3.67-9.05,9.31-10.81,15.41-1.98,6.87-1.5,14.32,1.84,20.22.67,1.19,1.44,2.23,2.27,3.13h0c7.01,7.58,19.24,5.6,27.95,1.28,1.16-.58,2.21-1.22,3.17-1.9,4.92-7.17,9.7-9.27,13.18-11.63-11.28,3.48-16.96,9.76-20.28,10.92-2.31.81-6.14,1.71-9.98.86-3.08.6-6.24.23-9.15-1.52-3.08-1.86-3.36-6.07-1.79-10.65-.49-1.72-.89-3.65-1.16-5.84-.24-1.9-.29-3.67-.18-5.32.13-1.99.5-3.8,1.06-5.44C18.1,6.29,33.15,3.24,39.4,2.58c8.55-.9,24,2.12,30.71,14.14,4.42,7.93.64,12.8-6.92,16.19-1.38,1.15-2.9,2.15-4.44,3.09,17.01-3.22,21.31-6.59,21.39-14.3.05-5.04-2.37-11.74-14.47-17.66Z"/>
    </g>
  </g>
</svg>