<svg xmlns="http://www.w3.org/2000/svg" xmlns:xlink="http://www.w3.org/1999/xlink" width="500" zoomAndPan="magnify" viewBox="0 0 375 374.999991" height="500" preserveAspectRatio="xMidYMid meet" version="1.0"><defs><clipPath id="b918f5a9a3"><path d="M 1.074219 1.074219 L 319.925781 1.074219 L 319.925781 319.925781 L 1.074219 319.925781 Z M 1.074219 1.074219 " clip-rule="nonzero"/></clipPath><clipPath id="839f380785"><path d="M 160.5 1.074219 C 72.449219 1.074219 1.074219 72.449219 1.074219 160.5 C 1.074219 248.550781 72.449219 319.925781 160.5 319.925781 C 248.550781 319.925781 319.925781 248.550781 319.925781 160.5 C 319.925781 72.449219 248.550781 1.074219 160.5 1.074219 Z M 160.5 1.074219 " clip-rule="nonzero"/></clipPath><clipPath id="f36f9fc204"><path d="M 0.0742188 0.0742188 L 318.925781 0.0742188 L 318.925781 318.925781 L 0.0742188 318.925781 Z M 0.0742188 0.0742188 " clip-rule="nonzero"/></clipPath><clipPath id="514c897603"><path d="M 159.5 0.0742188 C 71.449219 0.0742188 0.0742188 71.449219 0.0742188 159.5 C 0.0742188 247.550781 71.449219 318.925781 159.5 318.925781 C 247.550781 318.925781 318.925781 247.550781 318.925781 159.5 C 318.925781 71.449219 247.550781 0.0742188 159.5 0.0742188 Z M 159.5 0.0742188 " clip-rule="nonzero"/></clipPath><clipPath id="00e8a67c97"><rect x="0" width="319" y="0" height="319"/></clipPath><clipPath id="8185e57eca"><path d="M 92.621094 92.621094 L 228.386719 92.621094 L 228.386719 228.386719 L 92.621094 228.386719 Z M 92.621094 92.621094 " clip-rule="nonzero"/></clipPath><clipPath id="6674c75637"><rect x="0" width="321" y="0" height="321"/></clipPath></defs><g transform="matrix(1, 0, 0, 1, 27, 27)"><g clip-path="url(#6674c75637)"><g clip-path="url(#b918f5a9a3)"><g clip-path="url(#839f380785)"><g transform="matrix(1, 0, 0, 1, 1, 1)"><g clip-path="url(#00e8a67c97)"><g clip-path="url(#f36f9fc204)"><g clip-path="url(#514c897603)"><path fill="#ffffff" d="M 0.0742188 0.0742188 L 318.925781 0.0742188 L 318.925781 318.925781 L 0.0742188 318.925781 Z M 0.0742188 0.0742188 " fill-opacity="1" fill-rule="nonzero"/></g></g></g></g></g></g><g clip-path="url(#8185e57eca)"><path fill="#9fb350" d="M 132.371094 93.089844 C 125.148438 93.425781 120.21875 94.585938 115.910156 96.273438 C 111.445312 98.011719 107.667969 100.339844 103.90625 104.117188 C 100.140625 107.898438 97.828125 111.683594 96.105469 116.152344 C 94.4375 120.476562 93.304688 125.40625 92.988281 132.632812 C 92.667969 139.863281 92.597656 142.171875 92.628906 160.601562 C 92.660156 179.023438 92.742188 181.335938 93.089844 188.574219 C 93.433594 195.796875 94.585938 200.71875 96.273438 205.035156 C 98.011719 209.5 100.339844 213.269531 104.117188 217.039062 C 107.898438 220.804688 111.683594 223.113281 116.152344 224.839844 C 120.46875 226.507812 125.40625 227.644531 132.625 227.960938 C 139.863281 228.277344 142.171875 228.347656 160.59375 228.3125 C 179.023438 228.277344 181.332031 228.195312 188.570312 227.851562 C 195.789062 227.503906 200.710938 226.347656 205.027344 224.667969 C 209.492188 222.921875 213.269531 220.597656 217.03125 216.820312 C 220.792969 213.042969 223.105469 209.253906 224.832031 204.785156 C 226.5 200.46875 227.640625 195.535156 227.953125 188.320312 C 228.265625 181.082031 228.34375 178.765625 228.3125 160.34375 C 228.277344 141.921875 228.191406 139.613281 227.851562 132.375 C 227.503906 125.148438 226.355469 120.226562 224.667969 115.910156 C 222.921875 111.445312 220.597656 107.675781 216.820312 103.90625 C 213.042969 100.148438 209.253906 97.828125 204.785156 96.105469 C 200.46875 94.4375 195.535156 93.300781 188.3125 92.988281 C 181.074219 92.667969 178.761719 92.597656 160.339844 92.628906 C 141.917969 92.660156 139.609375 92.742188 132.371094 93.089844 M 133.164062 215.738281 C 126.550781 215.453125 122.957031 214.351562 120.558594 213.429688 C 117.386719 212.203125 115.128906 210.734375 112.746094 208.375 C 110.367188 206 108.894531 203.742188 107.65625 200.585938 C 106.726562 198.191406 105.609375 194.605469 105.296875 187.988281 C 104.957031 180.839844 104.878906 178.691406 104.847656 160.574219 C 104.816406 142.464844 104.878906 140.316406 105.191406 133.164062 C 105.476562 126.550781 106.582031 122.957031 107.5 120.566406 C 108.730469 117.394531 110.195312 115.136719 112.558594 112.75 C 114.933594 110.371094 117.1875 108.902344 120.355469 107.660156 C 122.746094 106.726562 126.332031 105.617188 132.945312 105.300781 C 140.101562 104.964844 142.242188 104.894531 160.359375 104.855469 C 178.472656 104.816406 180.621094 104.878906 187.777344 105.199219 C 194.390625 105.488281 197.980469 106.582031 200.375 107.507812 C 203.546875 108.734375 205.808594 110.195312 208.1875 112.566406 C 210.566406 114.9375 212.042969 117.1875 213.277344 120.359375 C 214.210938 122.746094 215.324219 126.339844 215.636719 132.945312 C 215.976562 140.101562 216.054688 142.25 216.085938 160.359375 C 216.117188 178.472656 216.054688 180.621094 215.738281 187.769531 C 215.453125 194.382812 214.351562 197.980469 213.429688 200.375 C 212.203125 203.539062 210.738281 205.800781 208.367188 208.179688 C 205.996094 210.554688 203.742188 212.03125 200.570312 213.269531 C 198.1875 214.203125 194.59375 215.316406 187.988281 215.632812 C 180.832031 215.96875 178.691406 216.046875 160.570312 216.078125 C 142.460938 216.109375 140.3125 216.046875 133.15625 215.734375 M 188.472656 124.203125 C 188.480469 128.699219 192.136719 132.335938 196.625 132.324219 C 201.121094 132.316406 204.761719 128.667969 204.753906 124.171875 C 204.746094 119.675781 201.089844 116.039062 196.59375 116.042969 C 192.097656 116.050781 188.460938 119.707031 188.46875 124.199219 M 125.628906 160.535156 C 125.667969 179.777344 141.296875 195.339844 160.53125 195.304688 C 179.769531 195.265625 195.339844 179.644531 195.304688 160.402344 C 195.265625 141.167969 179.636719 125.597656 160.394531 125.628906 C 141.160156 125.667969 125.589844 141.296875 125.628906 160.535156 M 137.847656 160.511719 C 137.832031 148.023438 147.933594 137.875 160.421875 137.855469 C 172.910156 137.832031 183.058594 147.933594 183.082031 160.429688 C 183.109375 172.917969 173 183.0625 160.511719 183.082031 C 148.023438 183.109375 137.875 173 137.855469 160.511719 " fill-opacity="1" fill-rule="nonzero"/></g></g></g></svg>