<?xml version="1.0" encoding="UTF-8"?>
<svg id="Capa_2" data-name="Capa 2" xmlns="http://www.w3.org/2000/svg" viewBox="0 0 182.58 42.84">
  <defs>
    <style>
      .cls-1 {
        fill: #fff;
      }
    </style>
  </defs>
  <g id="Capa_1-2" data-name="Capa 1">
    <g>
      <g>
        <path class="cls-1" d="M61.81,32.07v-.73c.66-.02,1.18-.08,1.55-.19.37-.11.63-.33.79-.67.16-.34.24-.87.24-1.59v-14.77c0-.74-.09-1.28-.28-1.6-.18-.33-.52-.55-1.01-.65-.49-.11-1.23-.17-2.21-.19v-.73h17.53v4.45h-.85c-.02-.68-.15-1.27-.37-1.76-.22-.5-.63-.88-1.22-1.14-.59-.26-1.46-.4-2.62-.4h-4.24c-.52,0-.91.11-1.2.32-.28.21-.42.78-.42,1.72v5.97c.2-.13.44-.21.72-.25.28-.04.62-.06,1.01-.06h5.19c1.45,0,2.21-.7,2.28-2.1h.85v5.4h-.85c-.02-.87-.2-1.45-.52-1.73-.32-.29-.91-.43-1.77-.43h-5.12c-.66,0-1.13.1-1.4.29-.27.19-.41.56-.41,1.11v6.58c0,.91.19,1.48.57,1.7.38.22,1.12.33,2.23.33h5.12c1.2,0,2.15-.17,2.84-.52.69-.35,1.19-.82,1.51-1.4.32-.58.52-1.21.59-1.89h.85l-.29,4.96h-19.12Z"/>
        <path class="cls-1" d="M96.47,32.32c-.2-.49-.43-.98-.7-1.48-.27-.5-.64-1.19-1.1-2.08l-7.03-13.5h-.07l-.74,13.63c-.02.78.18,1.38.63,1.78.44.4,1.41.63,2.91.67v.73h-7.85v-.73c.96-.04,1.63-.26,2.01-.67.38-.4.58-1,.61-1.78l.85-14.77c.05-.74,0-1.28-.17-1.6-.16-.33-.47-.55-.94-.65-.47-.11-1.17-.17-2.1-.19v-.73h6.26c.2.55.41,1.07.64,1.56.23.49.51,1.03.83,1.62l7.44,14.11h.07l6.85-14.11c.27-.55.51-1.09.72-1.6.21-.52.4-1.04.57-1.57h5.82v.73c-.69.02-1.23.08-1.62.19-.39.11-.66.32-.79.65-.14.33-.19.86-.17,1.6l.77,14.77c.05.72.16,1.25.33,1.59.17.34.48.56.94.65.45.1,1.09.16,1.9.21v.73h-8.54v-.73c.59-.04,1.06-.11,1.4-.21.34-.1.58-.31.72-.65.13-.34.18-.87.13-1.59l-.7-13.85h-.07l-6.74,13.73c-.42.89-.74,1.58-.98,2.08-.23.5-.42.99-.57,1.48h-1.51Z"/>
        <path class="cls-1" d="M127.34,10.46c1.67,0,3.24.25,4.71.76s2.79,1.24,3.94,2.21c1.15.96,2.06,2.12,2.71,3.48.65,1.36.98,2.87.98,4.54s-.33,3.19-.98,4.54c-.65,1.36-1.55,2.52-2.69,3.5-1.14.97-2.46,1.73-3.96,2.26-1.5.53-3.08.79-4.75.79s-3.21-.25-4.7-.76c-1.49-.51-2.8-1.24-3.94-2.21-1.14-.96-2.04-2.12-2.69-3.48-.65-1.36-.98-2.87-.98-4.54s.33-3.19.98-4.54c.65-1.36,1.55-2.52,2.69-3.5,1.14-.97,2.46-1.73,3.94-2.26,1.49-.53,3.06-.79,4.73-.79ZM127.85,31.27c1.47,0,2.83-.35,4.07-1.05,1.24-.7,2.24-1.73,3-3.1.76-1.37,1.14-3.06,1.14-5.07,0-2.2-.44-4.07-1.33-5.61-.88-1.54-2.03-2.71-3.43-3.51-1.4-.8-2.9-1.21-4.49-1.21-1.47,0-2.84.35-4.09,1.05s-2.26,1.73-3.02,3.1c-.76,1.37-1.14,3.06-1.14,5.07,0,2.2.44,4.07,1.33,5.61.88,1.54,2.04,2.71,3.46,3.51,1.42.81,2.92,1.21,4.49,1.21Z"/>
        <path class="cls-1" d="M149.91,32.32c-.15-.55-.28-1.01-.39-1.38-.11-.37-.29-.83-.53-1.38l-6.63-15.44c-.29-.74-.58-1.28-.85-1.6-.27-.33-.58-.55-.92-.65-.34-.11-.8-.17-1.36-.19v-.73h8.43l-.04.73c-.81.02-1.39.09-1.75.21-.36.12-.53.34-.53.68s.15.86.44,1.56l5.86,13.88h.07l5.97-13.88c.34-.8.35-1.4.02-1.8-.33-.39-1.26-.61-2.78-.65v-.73h7.59v.73c-1.38.08-2.38.9-3.02,2.45l-6.63,15.44c-.25.57-.44,1.04-.57,1.4-.14.36-.28.82-.42,1.37h-1.95Z"/>
        <path class="cls-1" d="M179.23,28.89c.29.74.58,1.28.85,1.6.27.33.6.54.98.64.38.1.89.16,1.53.21v.73h-8.8v-.73c.83-.04,1.45-.12,1.86-.22.41-.11.63-.33.68-.67.05-.34-.07-.86-.37-1.56l-2.1-5.46c-.12.11-.31.17-.55.21-.25.03-.5.05-.77.05h-4.82c-.54,0-.95.05-1.22.16-.27.11-.5.39-.7.86l-1.73,4.19c-.32.81-.31,1.4.02,1.8.33.39,1.28.61,2.85.65v.73h-7.62v-.73c.79-.04,1.41-.26,1.86-.65.45-.39.85-.99,1.2-1.8l6.52-15.44c.25-.55.48-1.09.7-1.62.22-.53.42-1.07.59-1.62h1.8c.17.55.36,1.09.57,1.62.21.53.44,1.07.68,1.62l6,15.44ZM172.6,22.54c.32,0,.54-.04.66-.11.12-.07.12-.24,0-.49l-3.02-7.72h-.07l-3.54,8.42c.12-.04.27-.07.44-.08.17-.01.37-.02.59-.02h4.94Z"/>
      </g>
      <g>
        <path class="cls-1" d="M60.89,41.16v-4.78h1.35c.33,0,.59.03.76.09.23.08.43.22.59.42.17.2.3.46.39.76.09.31.14.67.14,1.09,0,.54-.08,1-.24,1.38-.16.38-.36.64-.61.8-.25.16-.57.24-.98.24h-1.41ZM61.41,40.6h.83c.34,0,.59-.05.77-.16.17-.11.31-.29.4-.53.12-.32.19-.71.19-1.16,0-.48-.07-.87-.2-1.14-.13-.28-.3-.46-.51-.56-.14-.06-.36-.09-.66-.09h-.82v3.65Z"/>
        <path class="cls-1" d="M64.57,39.43c0-.6.13-1.05.38-1.35.25-.3.57-.46.95-.46s.69.15.95.46.38.74.38,1.32c0,.62-.12,1.08-.37,1.39s-.57.46-.95.46-.7-.15-.95-.46c-.25-.31-.38-.76-.38-1.35ZM65.06,39.43c0,.45.08.78.24,1s.36.33.61.33c.23,0,.42-.11.58-.33.16-.22.24-.55.24-1s-.08-.78-.24-1c-.16-.22-.37-.33-.61-.33-.23,0-.42.11-.58.33-.16.22-.24.55-.24,1Z"/>
        <path class="cls-1" d="M67.77,41.16v-3.46h.43v.49c.1-.19.23-.33.38-.43s.32-.14.52-.14c.15,0,.29.03.42.09.13.06.23.14.31.23.08.1.14.22.18.38.04.15.06.39.06.71v2.13h-.48v-2.11c0-.25-.02-.44-.07-.56s-.11-.21-.2-.27-.2-.1-.32-.1c-.23,0-.41.09-.55.26-.14.17-.21.47-.21.88v1.89h-.48Z"/>
        <path class="cls-1" d="M72.61,41.16v-.44c-.09.17-.2.29-.34.38-.14.09-.28.13-.44.13-.33,0-.62-.16-.87-.47-.24-.32-.37-.76-.37-1.33,0-.39.05-.73.16-1,.11-.27.25-.48.43-.61.18-.13.38-.2.6-.2.16,0,.31.04.44.13.14.08.25.2.34.35v-1.71h.49v4.78h-.45ZM71.09,39.43c0,.45.08.78.23,1,.16.22.34.33.54.33s.38-.1.53-.31c.15-.21.22-.52.22-.95,0-.48-.07-.84-.22-1.06-.15-.22-.34-.33-.57-.33-.2,0-.38.11-.52.32-.15.21-.22.55-.22,1.01Z"/>
        <path class="cls-1" d="M75.73,40.05l.5.08c-.08.37-.23.65-.45.84-.22.19-.48.28-.8.28-.4,0-.73-.15-.98-.46-.25-.31-.37-.75-.37-1.32s.13-1.05.38-1.37c.25-.31.57-.47.95-.47s.67.15.92.46c.25.31.37.76.37,1.34v.16h-2.12c.02.39.11.68.27.88s.36.3.59.3c.36,0,.61-.24.75-.71ZM74.15,39.1h1.58c-.02-.3-.09-.52-.19-.67-.15-.22-.35-.32-.59-.32-.22,0-.4.09-.55.27-.15.18-.24.42-.25.73Z"/>
        <path class="cls-1" d="M78.27,41.16v-4.78h.48v4.78h-.48Z"/>
        <path class="cls-1" d="M81.32,40.73c-.16.17-.33.29-.5.38-.17.08-.35.13-.54.13-.3,0-.53-.09-.71-.27-.18-.18-.26-.42-.26-.72,0-.2.04-.38.12-.53.08-.15.2-.27.34-.36.14-.09.36-.15.65-.19.39-.06.68-.13.86-.21v-.15c0-.24-.04-.4-.12-.5-.12-.14-.3-.21-.55-.21-.22,0-.39.05-.5.14-.11.09-.19.27-.24.52l-.47-.08c.07-.37.2-.64.41-.81.21-.17.5-.25.88-.25.3,0,.53.06.7.17.17.11.28.25.32.42.04.17.07.41.07.72v.78c0,.55.01.89.03,1.03.02.14.06.28.12.42h-.5c-.05-.12-.08-.26-.1-.43ZM81.28,39.42c-.18.09-.44.16-.79.22-.2.03-.34.07-.42.12-.08.04-.14.11-.19.19-.04.08-.07.18-.07.28,0,.17.05.3.15.4.1.1.24.15.42.15s.33-.04.47-.13.24-.21.31-.36c.07-.15.1-.37.1-.65v-.22Z"/>
        <path class="cls-1" d="M85.04,40.64l.07.52c-.13.03-.25.05-.36.05-.17,0-.3-.03-.4-.1-.1-.07-.17-.16-.21-.27-.04-.12-.06-.34-.06-.69v-1.99h-.35v-.46h.35v-.86l.48-.35v1.21h.49v.46h-.49v2.02c0,.19.01.31.04.36.04.08.12.12.23.12.05,0,.13,0,.21-.02Z"/>
        <path class="cls-1" d="M87.4,40.05l.5.08c-.08.37-.23.65-.45.84s-.48.28-.8.28c-.4,0-.73-.15-.98-.46-.25-.31-.37-.75-.37-1.32s.13-1.05.38-1.37.57-.47.95-.47.67.15.92.46c.25.31.37.76.37,1.34v.16h-2.12c.02.39.11.68.27.88s.36.3.59.3c.36,0,.61-.24.75-.71ZM85.82,39.1h1.58c-.02-.3-.09-.52-.19-.67-.15-.22-.35-.32-.59-.32-.22,0-.4.09-.55.27-.15.18-.24.42-.25.73Z"/>
        <path class="cls-1" d="M90.33,39.89l.47.08c-.05.41-.19.73-.41.95-.22.22-.48.33-.79.33-.37,0-.68-.15-.92-.46-.24-.31-.36-.76-.36-1.35s.12-1.05.36-1.35c.24-.3.55-.45.93-.45.29,0,.54.09.74.27.2.18.33.46.39.82l-.47.08c-.05-.23-.13-.41-.24-.52-.11-.12-.25-.17-.41-.17-.24,0-.43.1-.59.31-.16.21-.23.54-.23,1s.07.81.22,1.02c.15.21.34.32.57.32.18,0,.34-.07.47-.21.13-.14.21-.36.25-.65Z"/>
        <path class="cls-1" d="M91.17,41.16v-3.46h.43v.49c.1-.19.23-.33.38-.43s.32-.14.52-.14c.15,0,.29.03.42.09.13.06.23.14.31.23.08.1.14.22.18.38.04.15.06.39.06.71v2.13h-.48v-2.11c0-.25-.02-.44-.07-.56s-.11-.21-.2-.27-.2-.1-.32-.1c-.23,0-.41.09-.55.26-.14.17-.21.47-.21.88v1.89h-.48Z"/>
        <path class="cls-1" d="M94,39.43c0-.6.13-1.05.38-1.35s.57-.46.95-.46.69.15.95.46.38.74.38,1.32c0,.62-.13,1.08-.37,1.39-.25.3-.57.46-.95.46s-.7-.15-.95-.46c-.25-.31-.38-.76-.38-1.35ZM94.49,39.43c0,.45.08.78.24,1s.37.33.61.33c.23,0,.42-.11.58-.33s.24-.55.24-1-.08-.78-.24-1c-.16-.22-.37-.33-.61-.33-.23,0-.42.11-.58.33s-.24.55-.24,1Z"/>
        <path class="cls-1" d="M97.18,41.16v-4.78h.48v4.78h-.48Z"/>
        <path class="cls-1" d="M98.19,39.43c0-.6.13-1.05.38-1.35s.57-.46.95-.46.69.15.95.46.38.74.38,1.32c0,.62-.13,1.08-.37,1.39-.25.3-.57.46-.95.46s-.7-.15-.95-.46c-.25-.31-.38-.76-.38-1.35ZM98.69,39.43c0,.45.08.78.24,1s.37.33.61.33c.23,0,.42-.11.58-.33s.24-.55.24-1-.08-.78-.24-1c-.16-.22-.37-.33-.61-.33-.23,0-.42.11-.58.33s-.24.55-.24,1Z"/>
        <path class="cls-1" d="M101.29,41.45l.47.08c.02.19.09.32.2.41s.26.14.45.14c.21,0,.38-.05.5-.15.12-.1.21-.25.26-.45.03-.12.04-.38.04-.77-.1.15-.22.26-.35.34-.13.08-.27.11-.43.11-.34,0-.62-.14-.84-.43-.26-.33-.38-.77-.38-1.33,0-.37.06-.7.17-.97.11-.28.26-.48.44-.61s.39-.2.62-.2c.17,0,.32.04.46.12s.26.21.37.37v-.41h.44v2.99c0,.53-.04.91-.13,1.14-.09.23-.23.41-.43.54-.2.13-.44.2-.71.2-.37,0-.65-.1-.85-.3-.2-.2-.29-.47-.29-.82ZM101.69,39.37c0,.46.08.79.23,1,.15.21.33.31.55.31s.4-.1.56-.31c.15-.2.23-.53.23-.98s-.08-.76-.24-.97c-.16-.21-.35-.32-.57-.32-.2,0-.38.11-.53.32-.15.21-.23.53-.23.95Z"/>
        <path class="cls-1" d="M104.46,37.27l.36-.91h.63l-.59.91h-.4ZM104.58,41.16v-3.46h.48v3.46h-.48Z"/>
        <path class="cls-1" d="M107.74,40.73c-.16.17-.33.29-.5.38-.17.08-.35.13-.54.13-.3,0-.53-.09-.71-.27-.18-.18-.26-.42-.26-.72,0-.2.04-.38.12-.53.08-.15.2-.27.34-.36.14-.09.36-.15.65-.19.39-.06.68-.13.86-.21v-.15c0-.24-.04-.4-.12-.5-.12-.14-.3-.21-.55-.21-.22,0-.39.05-.5.14-.11.09-.19.27-.24.52l-.47-.08c.07-.37.2-.64.41-.81.21-.17.5-.25.88-.25.3,0,.53.06.7.17.17.11.28.25.32.42.04.17.07.41.07.72v.78c0,.55.01.89.03,1.03.02.14.06.28.12.42h-.5c-.05-.12-.08-.26-.1-.43ZM107.7,39.42c-.18.09-.44.16-.79.22-.2.03-.34.07-.42.12-.08.04-.14.11-.19.19s-.07.18-.07.28c0,.17.05.3.15.4.1.1.24.15.42.15s.33-.04.47-.13.24-.21.31-.36c.07-.15.1-.37.1-.65v-.22Z"/>
        <path class="cls-1" d="M111.46,40.64l.07.52c-.13.03-.25.05-.36.05-.17,0-.3-.03-.4-.1-.1-.07-.17-.16-.21-.27-.04-.12-.06-.34-.06-.69v-1.99h-.35v-.46h.35v-.86l.48-.35v1.21h.49v.46h-.49v2.02c0,.19.01.31.04.36.04.08.12.12.23.12.05,0,.12,0,.21-.02Z"/>
        <path class="cls-1" d="M113.82,40.05l.5.08c-.08.37-.23.65-.45.84-.22.19-.48.28-.8.28-.4,0-.73-.15-.98-.46-.25-.31-.37-.75-.37-1.32s.13-1.05.38-1.37c.25-.31.57-.47.95-.47s.67.15.92.46c.25.31.37.76.37,1.34v.16h-2.12c.02.39.11.68.27.88s.36.3.59.3c.36,0,.61-.24.75-.71ZM112.23,39.1h1.58c-.02-.3-.09-.52-.19-.67-.15-.22-.35-.32-.59-.32-.22,0-.4.09-.55.27-.15.18-.24.42-.25.73Z"/>
        <path class="cls-1" d="M114.89,41.16v-3.46h.43v.52c.11-.24.21-.4.3-.48.09-.08.2-.12.31-.12.16,0,.32.06.49.19l-.16.54c-.12-.08-.24-.13-.35-.13-.1,0-.2.04-.28.11-.08.07-.14.17-.18.3-.06.22-.09.46-.09.71v1.81h-.48Z"/>
        <path class="cls-1" d="M116.68,41.16v-3.46h.43v.48c.1-.18.22-.32.37-.41s.31-.15.49-.15c.2,0,.37.05.51.15.14.1.24.25.29.45.11-.2.24-.35.39-.45s.31-.15.49-.15c.27,0,.49.09.64.28.16.18.24.48.24.89v2.38h-.48v-2.18c0-.25-.02-.42-.05-.53s-.09-.18-.18-.24c-.08-.06-.17-.08-.27-.08-.21,0-.38.08-.51.25-.13.16-.2.42-.2.77v2.01h-.48v-2.25c0-.29-.04-.49-.13-.61s-.21-.18-.36-.18c-.22,0-.39.09-.52.27-.13.18-.19.5-.19.97v1.8h-.48Z"/>
        <path class="cls-1" d="M121.2,37.06v-.67h.48v.67h-.48ZM121.2,41.16v-3.46h.48v3.46h-.48Z"/>
        <path class="cls-1" d="M122.38,41.16v-3.46h.43v.49c.1-.19.23-.33.38-.43s.32-.14.52-.14c.15,0,.29.03.42.09.13.06.23.14.31.23.08.1.14.22.18.38.04.15.06.39.06.71v2.13h-.48v-2.11c0-.25-.02-.44-.07-.56s-.11-.21-.2-.27-.2-.1-.32-.1c-.23,0-.41.09-.55.26-.14.17-.21.47-.21.88v1.89h-.48Z"/>
        <path class="cls-1" d="M127.24,40.73c-.16.17-.33.29-.5.38-.17.08-.35.13-.54.13-.3,0-.53-.09-.71-.27-.18-.18-.26-.42-.26-.72,0-.2.04-.38.12-.53.08-.15.2-.27.34-.36.14-.09.36-.15.65-.19.39-.06.68-.13.86-.21v-.15c0-.24-.04-.4-.12-.5-.12-.14-.3-.21-.55-.21-.22,0-.39.05-.5.14-.11.09-.19.27-.24.52l-.47-.08c.07-.37.2-.64.41-.81.21-.17.5-.25.88-.25.3,0,.53.06.7.17.17.11.28.25.32.42.04.17.07.41.07.72v.78c0,.55.01.89.03,1.03.02.14.06.28.12.42h-.5c-.05-.12-.08-.26-.1-.43ZM127.2,39.42c-.18.09-.44.16-.79.22-.2.03-.34.07-.42.12-.08.04-.14.11-.19.19s-.07.18-.07.28c0,.17.05.3.15.4.1.1.24.15.42.15s.33-.04.47-.13.24-.21.31-.36c.07-.15.1-.37.1-.65v-.22Z"/>
        <path class="cls-1" d="M128.55,41.16v-.67h.55v.67c0,.26-.04.46-.11.61-.08.15-.19.26-.33.34l-.13-.25c.1-.05.17-.13.22-.23.05-.1.08-.26.08-.46h-.27Z"/>
        <path class="cls-1" d="M131.38,41.16v-3.46h.43v.49c.1-.19.23-.33.38-.43s.32-.14.52-.14c.15,0,.29.03.42.09.13.06.23.14.31.23.08.1.14.22.18.38.04.15.06.39.06.71v2.13h-.48v-2.11c0-.25-.02-.44-.07-.56s-.11-.21-.2-.27-.2-.1-.32-.1c-.23,0-.41.09-.55.26-.14.17-.21.47-.21.88v1.89h-.48Z"/>
        <path class="cls-1" d="M134.21,39.43c0-.6.13-1.05.38-1.35.25-.3.57-.46.95-.46s.69.15.95.46.38.74.38,1.32c0,.62-.12,1.08-.37,1.39s-.57.46-.95.46-.7-.15-.95-.46c-.25-.31-.38-.76-.38-1.35ZM134.7,39.43c0,.45.08.78.24,1s.36.33.61.33c.23,0,.42-.11.58-.33.16-.22.24-.55.24-1s-.08-.78-.24-1c-.16-.22-.37-.33-.61-.33-.23,0-.42.11-.58.33-.16.22-.24.55-.24,1Z"/>
        <path class="cls-1" d="M137.22,40.12l.48-.09c.03.24.11.43.23.55.13.12.29.18.5.18s.37-.05.48-.15c.11-.1.17-.23.17-.39,0-.14-.05-.24-.15-.32-.07-.05-.23-.12-.49-.2-.37-.12-.62-.21-.75-.29-.13-.08-.22-.19-.29-.32-.07-.13-.1-.29-.1-.46,0-.3.09-.54.28-.72.19-.18.45-.28.79-.28.21,0,.4.04.56.11.16.08.28.18.37.31.08.13.14.31.18.55l-.47.08c-.04-.38-.25-.57-.62-.57-.21,0-.36.04-.47.12-.1.08-.15.19-.15.32s.05.23.15.3c.06.04.23.11.52.21.4.13.66.23.77.3.12.08.21.18.27.31.06.13.1.28.1.46,0,.33-.1.6-.31.8-.21.2-.5.31-.86.31-.68,0-1.07-.37-1.18-1.11Z"/>
        <path class="cls-1" d="M139.93,39.43c0-.6.13-1.05.38-1.35s.57-.46.95-.46.69.15.95.46.38.74.38,1.32c0,.62-.13,1.08-.37,1.39-.25.3-.57.46-.95.46s-.7-.15-.95-.46c-.25-.31-.38-.76-.38-1.35ZM140.42,39.43c0,.45.08.78.24,1s.37.33.61.33c.23,0,.42-.11.58-.33s.24-.55.24-1-.08-.78-.24-1c-.16-.22-.37-.33-.61-.33-.23,0-.42.11-.58.33s-.24.55-.24,1Z"/>
        <path class="cls-1" d="M144.19,40.64l.07.52c-.13.03-.25.05-.36.05-.17,0-.3-.03-.4-.1-.1-.07-.17-.16-.21-.27-.04-.12-.06-.34-.06-.69v-1.99h-.35v-.46h.35v-.86l.48-.35v1.21h.49v.46h-.49v2.02c0,.19.01.31.04.36.04.08.12.12.23.12.05,0,.13,0,.21-.02Z"/>
        <path class="cls-1" d="M144.61,41.16v-3.46h.43v.52c.11-.24.21-.4.3-.48.09-.08.2-.12.31-.12.16,0,.32.06.49.19l-.16.54c-.12-.08-.24-.13-.35-.13-.1,0-.2.04-.28.11-.08.07-.14.17-.18.3-.06.22-.09.46-.09.71v1.81h-.48Z"/>
        <path class="cls-1" d="M146.21,39.43c0-.6.13-1.05.38-1.35s.57-.46.95-.46.69.15.95.46.38.74.38,1.32c0,.62-.13,1.08-.37,1.39-.25.3-.57.46-.95.46s-.7-.15-.95-.46c-.25-.31-.38-.76-.38-1.35ZM146.71,39.43c0,.45.08.78.24,1s.37.33.61.33c.23,0,.42-.11.58-.33s.24-.55.24-1-.08-.78-.24-1c-.16-.22-.37-.33-.61-.33-.23,0-.42.11-.58.33s-.24.55-.24,1Z"/>
        <path class="cls-1" d="M149.22,40.12l.48-.09c.03.24.11.43.23.55.13.12.29.18.5.18s.37-.05.48-.15c.11-.1.17-.23.17-.39,0-.14-.05-.24-.15-.32-.07-.05-.23-.12-.49-.2-.37-.12-.62-.21-.75-.29-.13-.08-.22-.19-.29-.32-.07-.13-.1-.29-.1-.46,0-.3.09-.54.28-.72.19-.18.45-.28.79-.28.21,0,.4.04.56.11.16.08.28.18.37.31.08.13.14.31.18.55l-.47.08c-.04-.38-.25-.57-.62-.57-.21,0-.36.04-.47.12-.1.08-.15.19-.15.32s.05.23.15.3c.06.04.23.11.52.21.4.13.66.23.77.3.12.08.21.18.27.31.06.13.1.28.1.46,0,.33-.1.6-.31.8-.21.2-.5.31-.86.31-.68,0-1.07-.37-1.18-1.11Z"/>
        <path class="cls-1" d="M155.54,40.05l.5.08c-.08.37-.23.65-.45.84-.22.19-.48.28-.8.28-.4,0-.73-.15-.98-.46-.25-.31-.37-.75-.37-1.32s.13-1.05.38-1.37c.25-.31.57-.47.95-.47s.67.15.92.46c.25.31.37.76.37,1.34v.16h-2.12c.02.39.11.68.27.88s.36.3.59.3c.36,0,.61-.24.75-.71ZM153.96,39.1h1.58c-.02-.3-.09-.52-.19-.67-.15-.22-.35-.32-.59-.32-.22,0-.4.09-.55.27-.15.18-.24.42-.25.73Z"/>
        <path class="cls-1" d="M156.62,41.16v-3.46h.43v.48c.1-.18.22-.32.37-.41s.31-.15.49-.15c.2,0,.37.05.51.15.14.1.24.25.29.45.11-.2.24-.35.39-.45s.31-.15.49-.15c.27,0,.49.09.64.28.16.18.24.48.24.89v2.38h-.48v-2.18c0-.25-.02-.42-.05-.53-.04-.1-.09-.18-.18-.24-.08-.06-.17-.08-.27-.08-.21,0-.38.08-.51.25-.13.16-.2.42-.2.77v2.01h-.48v-2.25c0-.29-.04-.49-.13-.61s-.21-.18-.36-.18c-.22,0-.39.09-.52.27-.13.18-.19.5-.19.97v1.8h-.48Z"/>
        <path class="cls-1" d="M161.14,42.49v-4.79h.44v.45c.11-.19.23-.32.36-.4s.28-.12.46-.12c.22,0,.43.07.61.2.18.13.32.33.43.6.11.27.16.6.16.98,0,.59-.12,1.04-.37,1.36-.25.32-.54.48-.87.48-.15,0-.29-.04-.41-.11-.13-.08-.24-.18-.33-.32v1.69h-.48ZM161.58,39.45c0,.45.07.78.22.99.15.21.33.32.54.32s.38-.11.54-.33c.15-.22.23-.56.23-1.02s-.07-.79-.22-1c-.15-.22-.33-.33-.55-.33-.19,0-.37.12-.53.35-.16.23-.24.57-.24,1.02Z"/>
        <path class="cls-1" d="M166.09,40.05l.5.08c-.08.37-.23.65-.45.84-.22.19-.48.28-.8.28-.4,0-.73-.15-.98-.46-.25-.31-.37-.75-.37-1.32s.13-1.05.38-1.37c.25-.31.57-.47.95-.47s.67.15.92.46c.25.31.37.76.37,1.34v.16h-2.12c.02.39.11.68.27.88s.36.3.59.3c.36,0,.61-.24.75-.71ZM164.51,39.1h1.58c-.02-.3-.09-.52-.19-.67-.15-.22-.35-.32-.59-.32-.22,0-.4.09-.55.27-.15.18-.24.42-.25.73Z"/>
        <path class="cls-1" d="M166.91,41.16v-.48l1.81-2.53c-.21.01-.39.02-.54.02h-1.16v-.48h2.32v.39l-1.54,2.2-.3.4c.22-.02.42-.03.61-.03h1.31v.51h-2.51Z"/>
        <path class="cls-1" d="M171.71,40.73c-.16.17-.33.29-.5.38-.17.08-.35.13-.54.13-.3,0-.53-.09-.71-.27-.18-.18-.26-.42-.26-.72,0-.2.04-.38.12-.53.08-.15.2-.27.34-.36.14-.09.36-.15.65-.19.39-.06.68-.13.86-.21v-.15c0-.24-.04-.4-.12-.5-.12-.14-.3-.21-.55-.21-.22,0-.39.05-.5.14-.11.09-.19.27-.24.52l-.47-.08c.07-.37.2-.64.41-.81.21-.17.5-.25.88-.25.3,0,.53.06.7.17.17.11.28.25.32.42.04.17.07.41.07.72v.78c0,.55.01.89.03,1.03.02.14.06.28.12.42h-.5c-.05-.12-.08-.26-.1-.43ZM171.67,39.42c-.18.09-.44.16-.79.22-.2.03-.34.07-.42.12-.08.04-.14.11-.19.19-.04.08-.07.18-.07.28,0,.17.05.3.15.4.1.1.24.15.42.15s.33-.04.47-.13.24-.21.31-.36c.07-.15.1-.37.1-.65v-.22Z"/>
        <path class="cls-1" d="M172.88,41.16v-3.46h.43v.48c.1-.18.22-.32.37-.41s.31-.15.49-.15c.2,0,.37.05.51.15.14.1.24.25.29.45.11-.2.24-.35.39-.45s.31-.15.49-.15c.27,0,.49.09.64.28.16.18.24.48.24.89v2.38h-.48v-2.18c0-.25-.02-.42-.05-.53-.04-.1-.09-.18-.18-.24-.08-.06-.17-.08-.27-.08-.21,0-.38.08-.51.25-.13.16-.2.42-.2.77v2.01h-.48v-2.25c0-.29-.04-.49-.13-.61s-.21-.18-.36-.18c-.22,0-.39.09-.52.27-.13.18-.19.5-.19.97v1.8h-.48Z"/>
        <path class="cls-1" d="M177.22,39.43c0-.6.13-1.05.38-1.35.25-.3.57-.46.95-.46s.69.15.95.46.38.74.38,1.32c0,.62-.12,1.08-.37,1.39s-.57.46-.95.46-.7-.15-.95-.46c-.25-.31-.38-.76-.38-1.35ZM177.71,39.43c0,.45.08.78.24,1s.36.33.61.33c.23,0,.42-.11.58-.33.16-.22.24-.55.24-1s-.08-.78-.24-1c-.16-.22-.37-.33-.61-.33-.23,0-.42.11-.58.33-.16.22-.24.55-.24,1Z"/>
        <path class="cls-1" d="M180.23,40.12l.48-.09c.03.24.11.43.23.55s.29.18.5.18.37-.05.48-.15c.11-.1.17-.23.17-.39,0-.14-.05-.24-.15-.32-.07-.05-.23-.12-.49-.2-.37-.12-.62-.21-.75-.29-.13-.08-.22-.19-.29-.32-.07-.13-.1-.29-.1-.46,0-.3.09-.54.28-.72.19-.18.45-.28.79-.28.21,0,.4.04.56.11.16.08.28.18.37.31.08.13.14.31.18.55l-.47.08c-.04-.38-.25-.57-.62-.57-.21,0-.36.04-.47.12-.1.08-.15.19-.15.32s.05.23.15.3c.06.04.23.11.52.21.4.13.66.23.77.3.12.08.21.18.27.31.07.13.1.28.1.46,0,.33-.1.6-.31.8-.21.2-.5.31-.86.31-.68,0-1.07-.37-1.18-1.11Z"/>
      </g>
      <g>
        <g>
          <path class="cls-1" d="M31.39,4.79c-8.15-.3-15.44,2.91-22.29,7.45-.37,1.08-.61,2.26-.7,3.57.84-1.17,1.9-2.24,3.22-3.18,8.81-6.23,18.77-4.7,22.07-2.65,2.41,1.49,6.73,5.23,5.78,9.07-.54,2.2-1.67,3.3-3.18,4.33-2.28,1.55-5.42,2.92-8.64,7.63-.46.67-.93,1.42-1.39,2.24-4.97,8.81-13.92,3.86-16.66,1.53-.89-.75-1.71-1.93-2.36-3.36-.55-.59-1.05-1.27-1.49-2.05-2.19-3.87-2.51-8.76-1.21-13.27C-4.07,25.87.34,40.66,11.18,42.54c12.23,2.12,18.74-7.58,20.91-13.59.8-2.23,3.64-3.63,6.44-5.35,1.01-.62,2.01-1.28,2.91-2.03,1.83-1.53,3.25-3.44,3.43-6.18,0-.05,0-.1,0-.16.25-4.14-5.13-10.15-13.5-10.46Z"/>
          <path class="cls-1" d="M10.46,30.11c1.9,1.15,3.98,1.39,6,1,3.66-.71,7.12-3.5,8.97-6.79.15-.27.3-.56.44-.86h0c3.48-.33,9.55-2.23,8.31-7.17-1.47-5.81-11.98-5.41-16.98-2.69-3.68,2-6.67,5.94-7.91,9.54-1.03,3-.85,5.77,1.17,6.98ZM18.32,13.63c6.02-2.32,10.73-.27,12.53,1.9,1.8,2.17,1.51,4.72-1.24,5.66h0s0,0,0,0c-3.3,1.35-6.98.73-8.57.36.02-.19.02-.38-.01-.57.92-.24,1.83-.48,2.75-.72.06.04.11.08.18.11.4.18.9.07,1.2-.24.15-.15.23-.33.28-.53.05-.22.09-.47,0-.69-.17-.48-.72-.64-1.18-.52-.2.06-.38.17-.52.33-.12.14-.18.3-.22.47-.91.36-1.81.73-2.71,1.09-.15-.29-.35-.54-.6-.74.42-1.02.84-2.03,1.27-3.05.02-.06.05-.12.07-.17.09-.02.18-.06.26-.11.38-.24.59-.72.5-1.16-.05-.22-.17-.41-.34-.55-.21-.16-.46-.31-.73-.33-.45,0-.83.32-.97.74-.14.42-.02.86.33,1.13.01.01.03.02.04.03-.35,1.05-.7,2.09-1.05,3.14-.29-.09-.59-.13-.88-.09-.2-.48-.4-.96-.61-1.44.25-.25.25-.65.06-.94-.21-.3-.58-.58-.96-.53-.31.04-.55.29-.58.61-.04.39.25.72.56.92.05.03.11.05.17.08.26.49.51.98.77,1.47-.15.07-.3.17-.44.29-.42.38-.63.91-.63,1.44-.59,0-1.18,0-1.77,0-.1-.12-.24-.21-.39-.28-.27-.11-.57-.19-.86-.15-.36.05-.7.3-.76.67-.03.17.01.35.11.49.11.17.29.27.48.34.41.16.9.23,1.27-.05.09-.07.16-.16.22-.26.6-.05,1.2-.09,1.8-.14.02.06.03.12.06.18.2.5.57.92,1.03,1.16-.3.57-.61,1.15-.91,1.72-.03.05-.05.1-.08.15-.28.08-.52.3-.68.55-.22.39-.3.93-.03,1.32.24.35.68.46,1.07.29.44-.19.72-.64.75-1.11.03-.31-.07-.64-.29-.85.21-.63.41-1.26.62-1.89.16.04.31.06.48.06.5,0,.97-.22,1.31-.55.73.38,2.14.79,4.75.78-2,4.16-7.04,6.51-11.53,4.41-5.57-2.6-1.82-11.76,4.63-14.24Z"/>
        </g>
        <path class="cls-1" d="M43.07,2.65C32.64-2.45,19.74.44,11.64,5.99c-3.51,2.41-5.94,6.11-7.09,10.11-1.3,4.5-.99,9.39,1.21,13.27.44.78.94,1.46,1.49,2.05h0c4.6,4.97,12.62,3.67,18.33.84.76-.38,1.45-.8,2.08-1.24,3.23-4.71,6.36-6.08,8.64-7.63-7.4,2.28-11.13,6.4-13.3,7.16-1.52.53-4.03,1.12-6.55.56-2.02.39-4.1.15-6-1-2.02-1.22-2.21-3.98-1.17-6.98-.32-1.13-.58-2.39-.76-3.83-.16-1.25-.19-2.41-.12-3.49.09-1.3.33-2.49.7-3.57C11.87,4.12,21.74,2.13,25.85,1.69c5.61-.59,15.74,1.39,20.14,9.27,2.9,5.2.42,8.4-4.54,10.62-.9.75-1.9,1.41-2.91,2.03,11.16-2.11,13.98-4.32,14.03-9.38.03-3.31-1.55-7.7-9.49-11.58Z"/>
      </g>
    </g>
  </g>
</svg>