<svg xmlns="http://www.w3.org/2000/svg" xmlns:xlink="http://www.w3.org/1999/xlink" width="500" zoomAndPan="magnify" viewBox="0 0 375 374.999991" height="500" preserveAspectRatio="xMidYMid meet" version="1.0"><defs><clipPath id="6ec746b227"><path d="M 28.074219 28.074219 L 346.925781 28.074219 L 346.925781 346.925781 L 28.074219 346.925781 Z M 28.074219 28.074219 " clip-rule="nonzero"/></clipPath><clipPath id="0ff9060fca"><path d="M 187.5 28.074219 C 99.449219 28.074219 28.074219 99.449219 28.074219 187.5 C 28.074219 275.550781 99.449219 346.925781 187.5 346.925781 C 275.550781 346.925781 346.925781 275.550781 346.925781 187.5 C 346.925781 99.449219 275.550781 28.074219 187.5 28.074219 Z M 187.5 28.074219 " clip-rule="nonzero"/></clipPath><clipPath id="2c223f0d8f"><path d="M 0.0742188 0.0742188 L 318.925781 0.0742188 L 318.925781 318.925781 L 0.0742188 318.925781 Z M 0.0742188 0.0742188 " clip-rule="nonzero"/></clipPath><clipPath id="3aa16b299e"><path d="M 159.5 0.0742188 C 71.449219 0.0742188 0.0742188 71.449219 0.0742188 159.5 C 0.0742188 247.550781 71.449219 318.925781 159.5 318.925781 C 247.550781 318.925781 318.925781 247.550781 318.925781 159.5 C 318.925781 71.449219 247.550781 0.0742188 159.5 0.0742188 Z M 159.5 0.0742188 " clip-rule="nonzero"/></clipPath><clipPath id="0fd38dc0be"><rect x="0" width="319" y="0" height="319"/></clipPath><clipPath id="2e67975378"><path d="M 28.074219 28.074219 L 346.824219 28.074219 L 346.824219 346.824219 L 28.074219 346.824219 Z M 28.074219 28.074219 " clip-rule="nonzero"/></clipPath><clipPath id="639e66236f"><path d="M 187.5 28.074219 C 99.449219 28.074219 28.074219 99.449219 28.074219 187.5 C 28.074219 275.546875 99.449219 346.925781 187.5 346.925781 C 275.546875 346.925781 346.925781 275.546875 346.925781 187.5 C 346.925781 99.449219 275.546875 28.074219 187.5 28.074219 Z M 187.5 28.074219 " clip-rule="nonzero"/></clipPath><clipPath id="261680a017"><path d="M 112.5 112.5 L 262.5 112.5 L 262.5 262.5 L 112.5 262.5 Z M 112.5 112.5 " clip-rule="nonzero"/></clipPath><clipPath id="155f665210"><rect x="0" width="375" y="0" height="375"/></clipPath></defs><g transform="matrix(1, 0, 0, 1, 0, 0)"><g clip-path="url(#155f665210)"><g clip-path="url(#6ec746b227)"><g clip-path="url(#0ff9060fca)"><g transform="matrix(1, 0, 0, 1, 28, 28)"><g clip-path="url(#0fd38dc0be)"><g clip-path="url(#2c223f0d8f)"><g clip-path="url(#3aa16b299e)"><path fill="#9fb350" d="M 0.0742188 0.0742188 L 318.925781 0.0742188 L 318.925781 318.925781 L 0.0742188 318.925781 Z M 0.0742188 0.0742188 " fill-opacity="1" fill-rule="nonzero"/></g></g></g></g></g></g><g clip-path="url(#2e67975378)"><g clip-path="url(#639e66236f)"><path stroke-linecap="butt" transform="matrix(0.347222, 0, 0, 0.347222, 28.073206, 28.073201)" fill="none" stroke-linejoin="miter" d="M 459.14921 0.00293009 C 205.562936 0.00293009 0.00291713 205.562949 0.00291713 459.149223 C 0.00291713 712.724246 205.562936 918.295515 459.14921 918.295515 C 712.724233 918.295515 918.295502 712.724246 918.295502 459.149223 C 918.295502 205.562949 712.724233 0.00293009 459.14921 0.00293009 Z M 459.14921 0.00293009 " stroke="#ffffff" stroke-width="86.400002" stroke-opacity="1" stroke-miterlimit="4"/></g></g><g clip-path="url(#261680a017)"><path fill="#ffffff" d="M 260.644531 222.613281 C 261.738281 225.542969 262.378906 228.683594 262.476562 231.972656 C 262.5 232.285156 262.5 232.597656 262.5 232.921875 C 262.5 249.253906 249.253906 262.5 232.921875 262.5 C 166.414062 262.5 112.5 208.585938 112.5 142.074219 C 112.5 125.746094 125.746094 112.5 142.074219 112.5 C 142.402344 112.5 142.714844 112.5 143.027344 112.523438 C 146.316406 112.621094 149.46875 113.257812 152.394531 114.355469 L 163.5 162.429688 C 163.5 162.453125 163.488281 162.464844 163.464844 162.476562 L 143.097656 171.628906 L 143.039062 171.652344 C 152.382812 200.109375 174.890625 222.613281 203.347656 231.960938 L 203.371094 231.898438 L 212.535156 211.523438 L 260.644531 222.613281 " fill-opacity="1" fill-rule="nonzero"/></g></g></g></svg>