<?xml version="1.0" encoding="UTF-8"?>
<svg id="Capa_2" data-name="Capa 2" xmlns="http://www.w3.org/2000/svg" viewBox="0 0 427.58 100.33">
  <defs>
    <style>
      .cls-1 {
        fill: #b9c85e;
      }

      .cls-2 {
        fill: #575756;
      }

      .cls-3 {
        fill: #9fb350;
      }
    </style>
  </defs>
  <g id="Capa_1-2" data-name="Capa 1">
    <g>
      <path class="cls-2" d="M144.76,75.1v-1.71c1.55-.05,2.76-.2,3.62-.45.86-.25,1.48-.77,1.85-1.56.37-.79.56-2.03.56-3.72v-34.6c0-1.74-.22-2.99-.65-3.76-.43-.77-1.22-1.28-2.37-1.52-1.15-.25-2.88-.4-5.17-.45v-1.71h41.06v10.42h-1.98c-.06-1.59-.35-2.96-.86-4.13-.52-1.17-1.47-2.06-2.85-2.68-1.38-.62-3.42-.93-6.12-.93h-9.92c-1.21,0-2.14.25-2.8.74-.66.5-.99,1.84-.99,4.02v13.99c.46-.3,1.02-.49,1.68-.6.66-.1,1.45-.15,2.37-.15h12.16c3.39,0,5.17-1.64,5.35-4.91h1.98v12.65h-1.98c-.06-2.03-.46-3.39-1.21-4.06-.75-.67-2.13-1-4.14-1h-11.99c-1.55,0-2.65.22-3.28.67-.63.45-.95,1.32-.95,2.6v15.4c0,2.13.45,3.46,1.34,3.98.89.52,2.63.78,5.22.78h11.99c2.82,0,5.03-.41,6.64-1.23,1.61-.82,2.79-1.91,3.54-3.28.75-1.36,1.21-2.84,1.38-4.43h1.98l-.69,11.61h-44.76Z"/>
      <path class="cls-2" d="M225.92,75.69c-.46-1.14-1.01-2.29-1.64-3.46-.63-1.17-1.5-2.79-2.59-4.87l-16.47-31.62h-.17l-1.73,31.92c-.06,1.84.43,3.22,1.47,4.17,1.04.94,3.31,1.46,6.81,1.56v1.71h-18.37v-1.71c2.24-.1,3.81-.62,4.7-1.56.89-.94,1.36-2.33,1.42-4.17l1.98-34.6c.11-1.74-.02-2.99-.39-3.76-.38-.77-1.11-1.28-2.2-1.53-1.09-.25-2.73-.4-4.92-.45v-1.71h14.66c.46,1.29.96,2.51,1.51,3.65.55,1.14,1.19,2.41,1.94,3.8l17.42,33.04h.17l16.04-33.04c.63-1.29,1.19-2.54,1.68-3.76.49-1.21.93-2.44,1.34-3.68h13.63v1.71c-1.61.05-2.88.2-3.8.45-.92.25-1.54.76-1.85,1.53-.32.77-.45,2.02-.39,3.76l1.81,34.6c.11,1.69.37,2.93.78,3.72.4.79,1.13,1.3,2.2,1.52,1.06.22,2.54.39,4.44.48v1.71h-20.01v-1.71c1.38-.1,2.47-.26,3.28-.48.8-.22,1.36-.73,1.68-1.52.32-.79.42-2.03.3-3.72l-1.64-32.44h-.17l-15.79,32.14c-.98,2.08-1.74,3.71-2.29,4.87-.55,1.17-.99,2.32-1.34,3.46h-3.54Z"/>
      <path class="cls-2" d="M298.2,24.5c3.91,0,7.59.6,11.04,1.79,3.45,1.19,6.52,2.92,9.23,5.17,2.7,2.26,4.82,4.97,6.34,8.15,1.52,3.17,2.29,6.72,2.29,10.64s-.76,7.47-2.29,10.64c-1.52,3.17-3.62,5.9-6.3,8.18-2.67,2.28-5.76,4.04-9.27,5.28-3.51,1.24-7.22,1.86-11.13,1.86s-7.52-.6-11-1.79c-3.48-1.19-6.55-2.91-9.23-5.17-2.67-2.26-4.77-4.97-6.3-8.15-1.52-3.17-2.29-6.72-2.29-10.64s.76-7.46,2.29-10.64c1.52-3.17,3.62-5.9,6.3-8.18,2.67-2.28,5.75-4.04,9.23-5.28,3.48-1.24,7.17-1.86,11.08-1.86M299.41,73.24c3.45,0,6.63-.82,9.53-2.45,2.9-1.64,5.25-4.05,7.03-7.26,1.78-3.2,2.67-7.15,2.67-11.87,0-5.16-1.04-9.54-3.1-13.13-2.07-3.6-4.74-6.34-8.02-8.22-3.28-1.88-6.79-2.83-10.52-2.83-3.45,0-6.64.82-9.57,2.45-2.93,1.64-5.29,4.05-7.07,7.26-1.78,3.2-2.67,7.15-2.67,11.87,0,5.16,1.04,9.54,3.1,13.13,2.07,3.6,4.77,6.34,8.11,8.22,3.33,1.89,6.84,2.83,10.52,2.83"/>
      <path class="cls-2" d="M351.07,75.69c-.35-1.29-.65-2.37-.91-3.24-.26-.87-.68-1.95-1.25-3.24l-15.53-36.16c-.69-1.74-1.35-2.99-1.98-3.76-.63-.77-1.35-1.28-2.16-1.53-.81-.25-1.87-.4-3.19-.45v-1.71h19.75l-.09,1.71c-1.9.05-3.26.21-4.1.48-.83.27-1.25.81-1.25,1.6s.34,2.01,1.03,3.65l13.71,32.52h.17l13.97-32.52c.8-1.89.82-3.29.04-4.2-.78-.92-2.95-1.42-6.51-1.52v-1.71h17.77v1.71c-3.22.2-5.58,2.11-7.07,5.73l-15.53,36.16c-.58,1.34-1.02,2.43-1.34,3.27-.32.85-.65,1.91-.99,3.2h-4.57Z"/>
      <path class="cls-2" d="M419.73,67.66c.69,1.74,1.35,2.99,1.98,3.76.63.77,1.39,1.26,2.29,1.49.89.22,2.08.39,3.58.48v1.71h-20.61v-1.71c1.95-.1,3.41-.27,4.36-.52.95-.25,1.48-.77,1.6-1.56.11-.79-.17-2.01-.86-3.64l-4.92-12.8c-.29.25-.72.41-1.29.48-.58.08-1.18.11-1.81.11h-11.3c-1.27,0-2.21.12-2.85.37-.63.25-1.18.92-1.64,2.01l-4.05,9.82c-.75,1.89-.73,3.29.04,4.2.78.92,3,1.43,6.68,1.52v1.71h-17.85v-1.71c1.84-.1,3.29-.61,4.36-1.52,1.06-.92,2-2.32,2.8-4.2l15.27-36.16c.57-1.29,1.12-2.55,1.64-3.79.52-1.24.98-2.51,1.38-3.8h4.23c.4,1.29.85,2.56,1.34,3.8.49,1.24,1.02,2.51,1.6,3.79l14.06,36.16ZM404.2,52.78c.75,0,1.26-.09,1.55-.26.29-.17.29-.56,0-1.15l-7.07-18.08h-.17l-8.28,19.72c.29-.1.63-.16,1.04-.19.4-.02.86-.04,1.38-.04h11.56Z"/>
      <path class="cls-2" d="M142.6,96.39v-11.19h3.17c.78,0,1.38.07,1.79.21.53.18,1,.5,1.39.98.39.47.7,1.07.92,1.79.22.72.33,1.57.33,2.56,0,1.27-.19,2.34-.56,3.23-.37.88-.85,1.51-1.43,1.88-.58.37-1.34.55-2.29.55h-3.31ZM143.81,95.07h1.95c.79,0,1.39-.13,1.79-.38.41-.26.72-.67.94-1.24.29-.76.43-1.67.43-2.73,0-1.13-.15-2.03-.46-2.67-.31-.65-.7-1.08-1.19-1.3-.33-.15-.84-.22-1.55-.22h-1.92v8.55Z"/>
      <path class="cls-2" d="M151.22,92.34c0-1.4.3-2.46.88-3.17.59-.71,1.33-1.07,2.23-1.07s1.63.36,2.22,1.07c.6.71.89,1.74.89,3.08,0,1.46-.29,2.54-.88,3.25-.59.71-1.33,1.07-2.24,1.07s-1.63-.36-2.23-1.07c-.59-.72-.89-1.77-.89-3.16M152.37,92.33c0,1.05.19,1.83.57,2.34.38.51.85.77,1.42.77.53,0,.98-.26,1.36-.77.38-.52.57-1.3.57-2.34s-.19-1.82-.57-2.33c-.38-.51-.86-.77-1.42-.77-.53,0-.99.26-1.37.77-.38.52-.56,1.29-.56,2.33"/>
      <path class="cls-2" d="M158.69,96.39v-8.11h1.02v1.14c.24-.45.54-.78.89-1,.35-.22.76-.33,1.21-.33.36,0,.68.07.99.21.3.14.55.32.73.55.18.23.32.52.41.88.09.36.14.92.14,1.66v4.98h-1.12v-4.94c0-.6-.05-1.03-.15-1.31-.1-.27-.26-.49-.48-.64s-.47-.23-.75-.23c-.54,0-.97.2-1.29.6-.32.4-.48,1.09-.48,2.07v4.43h-1.12Z"/>
      <path class="cls-2" d="M170.05,96.39v-1.02c-.2.39-.46.69-.79.9-.32.21-.67.31-1.04.31-.78,0-1.46-.37-2.03-1.11-.57-.74-.86-1.78-.86-3.13,0-.92.13-1.7.38-2.34.25-.64.59-1.12,1.02-1.43.42-.31.9-.47,1.41-.47.37,0,.72.1,1.03.29.32.2.58.47.79.82v-4.02h1.14v11.19h-1.05ZM166.49,92.34c0,1.05.18,1.83.55,2.34.36.51.79.76,1.27.76s.89-.25,1.24-.73c.35-.49.53-1.23.53-2.21,0-1.13-.18-1.96-.53-2.48-.35-.52-.79-.78-1.33-.78-.47,0-.88.25-1.22.75-.34.5-.51,1.29-.51,2.36"/>
      <path class="cls-2" d="M177.34,93.78l1.16.18c-.19.87-.54,1.52-1.05,1.96-.51.44-1.13.66-1.88.66-.94,0-1.7-.36-2.29-1.07-.58-.71-.87-1.75-.87-3.09s.29-2.47.88-3.2c.59-.74,1.33-1.1,2.23-1.1s1.58.36,2.15,1.08c.57.72.86,1.77.86,3.14v.37h-4.97c.05.91.26,1.6.63,2.06.38.46.83.7,1.37.7.85,0,1.43-.55,1.76-1.66M173.64,91.56h3.71c-.05-.7-.2-1.23-.45-1.57-.36-.5-.82-.76-1.38-.76-.5,0-.93.21-1.29.63-.36.42-.55.99-.59,1.7"/>
      <rect class="cls-2" x="183.29" y="85.2" width="1.12" height="11.19"/>
      <path class="cls-2" d="M190.43,95.39c-.38.39-.77.69-1.17.88s-.83.3-1.27.3c-.69,0-1.24-.21-1.66-.63-.41-.42-.62-.98-.62-1.69,0-.47.1-.88.29-1.24.19-.36.46-.64.79-.85.34-.2.85-.35,1.53-.45.92-.13,1.59-.29,2.02-.48v-.35c0-.55-.09-.94-.29-1.17-.28-.33-.71-.49-1.29-.49-.52,0-.92.11-1.17.33-.26.22-.45.62-.57,1.22l-1.11-.18c.16-.87.48-1.5.96-1.9.48-.4,1.17-.6,2.07-.6.7,0,1.24.13,1.64.39.4.26.65.59.75.97.1.39.16.95.16,1.69v1.83c0,1.28.02,2.09.07,2.42.05.33.14.66.29.97h-1.18c-.12-.28-.19-.61-.23-1M190.34,92.32c-.41.2-1.03.38-1.84.52-.47.08-.8.17-.99.28-.19.1-.34.25-.44.44-.1.19-.16.41-.16.66,0,.39.12.7.36.93.24.23.57.35.99.35s.77-.11,1.1-.31c.33-.21.57-.49.74-.84.16-.35.24-.86.24-1.52v-.5Z"/>
      <path class="cls-2" d="M199.14,95.16l.15,1.21c-.31.08-.59.12-.84.12-.39,0-.71-.08-.95-.23-.24-.15-.4-.37-.49-.64-.09-.27-.13-.81-.13-1.61v-4.66h-.82v-1.07h.82v-2.01l1.12-.82v2.83h1.14v1.07h-1.14v4.74c0,.44.03.72.1.85.1.18.28.27.54.27.13,0,.29-.02.5-.05"/>
      <path class="cls-2" d="M204.67,93.78l1.16.18c-.19.87-.54,1.52-1.05,1.96-.51.44-1.13.66-1.88.66-.94,0-1.7-.36-2.29-1.07-.58-.71-.87-1.75-.87-3.09s.29-2.47.88-3.2c.59-.74,1.33-1.1,2.23-1.1s1.58.36,2.15,1.08c.57.72.86,1.77.86,3.14v.37h-4.97c.05.91.26,1.6.63,2.06.38.46.83.7,1.37.7.84,0,1.43-.55,1.76-1.66M200.97,91.56h3.71c-.05-.7-.2-1.23-.45-1.57-.36-.5-.82-.76-1.38-.76-.5,0-.93.21-1.29.63-.36.42-.55.99-.59,1.7"/>
      <path class="cls-2" d="M211.53,93.42l1.11.18c-.13.97-.45,1.7-.96,2.21-.51.51-1.13.76-1.84.76-.87,0-1.59-.36-2.15-1.07s-.84-1.77-.84-3.17.28-2.47.85-3.17c.57-.71,1.3-1.06,2.19-1.06.69,0,1.27.21,1.74.64.47.43.77,1.07.9,1.92l-1.09.2c-.11-.55-.29-.96-.56-1.23-.27-.27-.58-.41-.95-.41-.55,0-1.01.25-1.38.74-.36.49-.55,1.27-.55,2.34s.17,1.9.52,2.4c.35.49.8.74,1.34.74.43,0,.79-.16,1.1-.49.3-.33.49-.84.58-1.53"/>
      <path class="cls-2" d="M213.51,96.39v-8.11h1.01v1.14c.24-.45.54-.78.9-1,.35-.22.76-.33,1.21-.33.36,0,.68.07.99.21.3.14.55.32.73.55.18.23.32.52.42.88.09.36.14.92.14,1.66v4.98h-1.12v-4.94c0-.6-.05-1.03-.15-1.31-.1-.27-.26-.49-.48-.64s-.47-.23-.75-.23c-.54,0-.97.2-1.29.6-.32.4-.48,1.09-.48,2.07v4.43h-1.12Z"/>
      <path class="cls-2" d="M220.13,92.34c0-1.4.29-2.46.88-3.17.59-.71,1.33-1.07,2.23-1.07s1.62.36,2.22,1.07c.6.71.89,1.74.89,3.08,0,1.46-.29,2.54-.88,3.25-.59.71-1.33,1.07-2.24,1.07s-1.63-.36-2.23-1.07c-.59-.72-.89-1.77-.89-3.16M221.29,92.33c0,1.05.19,1.83.57,2.34.38.51.86.77,1.42.77.53,0,.98-.26,1.36-.77.38-.52.57-1.3.57-2.34s-.19-1.82-.57-2.33c-.38-.51-.86-.77-1.42-.77-.54,0-.99.26-1.37.77-.38.52-.56,1.29-.56,2.33"/>
      <rect class="cls-2" x="227.57" y="85.2" width="1.12" height="11.19"/>
      <path class="cls-2" d="M229.95,92.34c0-1.4.29-2.46.88-3.17.59-.71,1.33-1.07,2.23-1.07s1.63.36,2.22,1.07c.6.71.89,1.74.89,3.08,0,1.46-.29,2.54-.88,3.25-.59.71-1.33,1.07-2.24,1.07s-1.63-.36-2.22-1.07c-.59-.72-.89-1.77-.89-3.16M231.11,92.33c0,1.05.19,1.83.57,2.34.38.51.86.77,1.42.77.53,0,.98-.26,1.36-.77.38-.52.57-1.3.57-2.34s-.19-1.82-.57-2.33c-.38-.51-.86-.77-1.42-.77s-.99.26-1.37.77c-.38.52-.56,1.29-.56,2.33"/>
      <path class="cls-2" d="M237.21,97.06l1.1.2c.05.43.2.76.46.97.25.21.61.32,1.06.32.49,0,.89-.12,1.18-.35.29-.24.49-.59.6-1.06.07-.29.1-.88.1-1.8-.24.35-.52.61-.82.79-.3.18-.64.27-1.02.27-.79,0-1.45-.34-1.98-1.01-.6-.77-.9-1.81-.9-3.11,0-.87.13-1.63.4-2.28.26-.65.61-1.13,1.04-1.44.43-.3.91-.46,1.45-.46.39,0,.75.1,1.07.29.32.19.61.48.86.87v-.97h1.04v7.01c0,1.25-.1,2.13-.31,2.67-.2.53-.54.95-1,1.26-.46.31-1.02.46-1.67.46-.86,0-1.52-.23-1.98-.69s-.69-1.11-.67-1.92M238.14,92.19c0,1.07.18,1.84.53,2.33.35.49.78.73,1.29.73s.94-.24,1.3-.72c.36-.48.54-1.24.54-2.29s-.18-1.78-.55-2.28c-.37-.5-.81-.75-1.34-.75-.47,0-.88.25-1.24.75-.35.5-.53,1.24-.53,2.22"/>
      <path class="cls-2" d="M244.63,87.28l.83-2.14h1.47l-1.37,2.14h-.93ZM244.92,88.28h1.12v8.11h-1.12v-8.11Z"/>
      <path class="cls-2" d="M252.3,95.39c-.38.39-.77.69-1.18.88s-.83.3-1.27.3c-.69,0-1.24-.21-1.65-.63-.41-.42-.62-.98-.62-1.69,0-.47.1-.88.29-1.24.19-.36.46-.64.79-.85.34-.2.85-.35,1.53-.45.92-.13,1.59-.29,2.02-.48v-.35c0-.55-.09-.94-.29-1.17-.28-.33-.71-.49-1.29-.49-.52,0-.92.11-1.18.33-.26.22-.45.62-.57,1.22l-1.11-.18c.16-.87.48-1.5.96-1.9.48-.4,1.17-.6,2.07-.6.7,0,1.24.13,1.64.39.4.26.65.59.75.97.11.39.16.95.16,1.69v1.83c0,1.28.02,2.09.07,2.42.05.33.14.66.29.97h-1.18c-.12-.28-.19-.61-.23-1M252.2,92.32c-.41.2-1.03.38-1.84.52-.47.08-.8.17-.99.28-.19.1-.34.25-.44.44-.1.19-.16.41-.16.66,0,.39.12.7.36.93.24.23.57.35.99.35.4,0,.77-.11,1.1-.31.33-.21.57-.49.74-.84.16-.35.24-.86.24-1.52v-.5Z"/>
      <path class="cls-2" d="M261.01,95.16l.15,1.21c-.31.08-.59.12-.84.12-.39,0-.71-.08-.95-.23-.24-.15-.4-.37-.49-.64-.09-.27-.13-.81-.13-1.61v-4.66h-.82v-1.07h.82v-2.01l1.12-.82v2.83h1.14v1.07h-1.14v4.74c0,.44.03.72.1.85.1.18.28.27.54.27.13,0,.29-.02.5-.05"/>
      <path class="cls-2" d="M266.53,93.78l1.16.18c-.19.87-.54,1.52-1.05,1.96-.51.44-1.13.66-1.88.66-.94,0-1.7-.36-2.29-1.07-.58-.71-.87-1.75-.87-3.09s.29-2.47.88-3.2c.59-.74,1.33-1.1,2.23-1.1s1.58.36,2.15,1.08c.57.72.86,1.77.86,3.14v.37h-4.97c.05.91.26,1.6.63,2.06.38.46.83.7,1.37.7.85,0,1.43-.55,1.76-1.66M262.83,91.56h3.71c-.05-.7-.2-1.23-.45-1.57-.36-.5-.82-.76-1.38-.76-.5,0-.93.21-1.29.63-.36.42-.55.99-.59,1.7"/>
      <path class="cls-2" d="M269.04,96.39v-8.11h1.02v1.23c.26-.57.5-.95.71-1.13.22-.18.46-.28.73-.28.38,0,.76.15,1.15.44l-.38,1.27c-.28-.2-.55-.3-.82-.3-.24,0-.46.08-.66.25s-.34.4-.42.7c-.14.52-.21,1.08-.21,1.67v4.24h-1.12Z"/>
      <path class="cls-2" d="M273.24,96.39v-8.11h1.01v1.13c.22-.42.51-.74.86-.97.35-.23.74-.34,1.15-.34.47,0,.86.12,1.18.36.32.24.55.59.69,1.05.27-.47.57-.82.92-1.06.34-.24.73-.35,1.14-.35.64,0,1.14.22,1.51.65.37.43.55,1.12.55,2.08v5.56h-1.12v-5.11c0-.58-.04-.99-.13-1.23s-.22-.43-.41-.56c-.19-.13-.4-.2-.64-.2-.49,0-.88.19-1.19.58-.31.38-.46.99-.46,1.81v4.71h-1.12v-5.27c0-.67-.1-1.15-.31-1.42-.21-.28-.49-.41-.85-.41-.51,0-.92.21-1.22.62-.3.41-.45,1.17-.45,2.27v4.21h-1.12Z"/>
      <path class="cls-2" d="M283.83,85.2h1.12v1.58h-1.12v-1.58ZM283.83,88.28h1.12v8.11h-1.12v-8.11Z"/>
      <path class="cls-2" d="M286.6,96.39v-8.11h1.01v1.14c.24-.45.54-.78.89-1,.35-.22.76-.33,1.22-.33.36,0,.68.07.99.21.3.14.55.32.73.55.18.23.32.52.41.88.09.36.14.92.14,1.66v4.98h-1.12v-4.94c0-.6-.05-1.03-.15-1.31-.1-.27-.26-.49-.48-.64-.22-.15-.47-.23-.75-.23-.54,0-.97.2-1.29.6-.32.4-.48,1.09-.48,2.07v4.43h-1.12Z"/>
      <path class="cls-2" d="M297.98,95.39c-.38.39-.77.69-1.18.88s-.83.3-1.27.3c-.69,0-1.24-.21-1.66-.63-.41-.42-.62-.98-.62-1.69,0-.47.1-.88.29-1.24.19-.36.46-.64.79-.85.34-.2.85-.35,1.53-.45.92-.13,1.59-.29,2.02-.48v-.35c0-.55-.09-.94-.29-1.17-.28-.33-.71-.49-1.29-.49-.52,0-.92.11-1.17.33-.26.22-.45.62-.57,1.22l-1.11-.18c.16-.87.48-1.5.96-1.9.48-.4,1.17-.6,2.07-.6.7,0,1.24.13,1.64.39.4.26.65.59.75.97.11.39.16.95.16,1.69v1.83c0,1.28.02,2.09.07,2.42.05.33.14.66.29.97h-1.18c-.12-.28-.19-.61-.23-1M297.89,92.32c-.41.2-1.03.38-1.84.52-.47.08-.8.17-.99.28-.19.1-.33.25-.44.44-.1.19-.16.41-.16.66,0,.39.12.7.36.93.24.23.57.35.99.35.4,0,.77-.11,1.1-.31.33-.21.57-.49.74-.84.16-.35.24-.86.24-1.52v-.5Z"/>
      <path class="cls-2" d="M301.03,96.39v-1.56h1.28v1.56c0,.61-.09,1.08-.27,1.42-.18.34-.44.61-.78.79l-.31-.59c.23-.12.4-.3.52-.54.12-.24.18-.6.19-1.08h-.63Z"/>
      <path class="cls-2" d="M307.67,96.39v-8.11h1.02v1.14c.24-.45.54-.78.89-1,.35-.22.76-.33,1.21-.33.36,0,.68.07.99.21.3.14.55.32.73.55.18.23.32.52.42.88.09.36.14.92.14,1.66v4.98h-1.12v-4.94c0-.6-.05-1.03-.15-1.31-.1-.27-.26-.49-.48-.64s-.47-.23-.75-.23c-.54,0-.97.2-1.29.6-.32.4-.48,1.09-.48,2.07v4.43h-1.12Z"/>
      <path class="cls-2" d="M314.3,92.34c0-1.4.3-2.46.88-3.17.59-.71,1.33-1.07,2.23-1.07s1.63.36,2.22,1.07c.6.71.89,1.74.89,3.08,0,1.46-.29,2.54-.88,3.25-.58.71-1.33,1.07-2.24,1.07s-1.63-.36-2.23-1.07c-.59-.72-.89-1.77-.89-3.16M315.45,92.33c0,1.05.19,1.83.57,2.34.38.51.85.77,1.42.77.53,0,.98-.26,1.36-.77.38-.52.57-1.3.57-2.34s-.19-1.82-.57-2.33c-.38-.51-.86-.77-1.42-.77-.54,0-.99.26-1.37.77-.38.52-.56,1.29-.56,2.33"/>
      <path class="cls-2" d="M321.34,93.96l1.12-.21c.07.57.25,1,.54,1.28.29.28.69.42,1.17.42s.86-.12,1.13-.36c.27-.24.4-.55.4-.92,0-.32-.12-.57-.34-.75-.16-.12-.54-.27-1.14-.46-.88-.27-1.46-.5-1.76-.69-.29-.19-.52-.44-.69-.76-.16-.32-.24-.67-.24-1.08,0-.69.22-1.25.66-1.69.44-.43,1.06-.65,1.84-.65.49,0,.93.09,1.3.27.38.18.66.42.86.72.2.3.34.73.41,1.29l-1.1.18c-.1-.89-.58-1.33-1.44-1.33-.49,0-.85.1-1.09.29-.24.2-.36.44-.36.75s.12.53.34.71c.14.1.55.26,1.22.49.93.3,1.54.53,1.81.71.27.18.49.42.64.72s.23.66.23,1.08c0,.77-.25,1.4-.74,1.88-.49.48-1.16.72-2.01.72-1.59,0-2.52-.87-2.77-2.61"/>
      <path class="cls-2" d="M327.68,92.34c0-1.4.29-2.46.88-3.17.59-.71,1.33-1.07,2.23-1.07s1.63.36,2.22,1.07c.59.71.89,1.74.89,3.08,0,1.46-.29,2.54-.88,3.25-.59.71-1.33,1.07-2.24,1.07s-1.63-.36-2.22-1.07c-.59-.72-.89-1.77-.89-3.16M328.83,92.33c0,1.05.19,1.83.57,2.34.38.51.86.77,1.42.77.53,0,.98-.26,1.36-.77.38-.52.57-1.3.57-2.34s-.19-1.82-.57-2.33c-.38-.51-.85-.77-1.42-.77s-.99.26-1.37.77c-.38.52-.56,1.29-.56,2.33"/>
      <path class="cls-2" d="M337.66,95.16l.15,1.21c-.31.08-.59.12-.84.12-.39,0-.71-.08-.95-.23-.24-.15-.4-.37-.49-.64-.09-.27-.13-.81-.13-1.61v-4.66h-.82v-1.07h.82v-2.01l1.12-.82v2.83h1.14v1.07h-1.14v4.74c0,.44.03.72.1.85.1.18.28.27.54.27.13,0,.29-.02.5-.05"/>
      <path class="cls-2" d="M338.65,96.39v-8.11h1.02v1.23c.26-.57.5-.95.71-1.13.22-.18.46-.28.73-.28.38,0,.76.15,1.15.44l-.38,1.27c-.28-.2-.55-.3-.82-.3-.24,0-.46.08-.66.25s-.34.4-.42.7c-.14.52-.21,1.08-.21,1.67v4.24h-1.12Z"/>
      <path class="cls-2" d="M342.41,92.34c0-1.4.29-2.46.88-3.17.59-.71,1.33-1.07,2.23-1.07s1.63.36,2.22,1.07c.59.71.89,1.74.89,3.08,0,1.46-.29,2.54-.88,3.25-.59.71-1.33,1.07-2.24,1.07s-1.63-.36-2.23-1.07c-.59-.72-.89-1.77-.89-3.16M343.56,92.33c0,1.05.19,1.83.57,2.34.38.51.85.77,1.42.77.53,0,.98-.26,1.36-.77.38-.52.57-1.3.57-2.34s-.19-1.82-.57-2.33c-.38-.51-.86-.77-1.42-.77-.53,0-.99.26-1.37.77-.38.52-.56,1.29-.56,2.33"/>
      <path class="cls-2" d="M349.45,93.96l1.12-.21c.07.57.25,1,.54,1.28.29.28.69.42,1.17.42s.86-.12,1.13-.36c.27-.24.4-.55.4-.92,0-.32-.11-.57-.34-.75-.16-.12-.54-.27-1.14-.46-.88-.27-1.46-.5-1.76-.69-.3-.19-.52-.44-.69-.76-.16-.32-.24-.67-.24-1.08,0-.69.22-1.25.66-1.69.44-.43,1.06-.65,1.84-.65.49,0,.93.09,1.3.27.37.18.66.42.86.72.2.3.33.73.41,1.29l-1.1.18c-.1-.89-.58-1.33-1.44-1.33-.49,0-.85.1-1.09.29-.24.2-.36.44-.36.75s.11.53.34.71c.14.1.54.26,1.22.49.93.3,1.54.53,1.81.71s.49.42.64.72c.15.3.23.66.23,1.08,0,.77-.25,1.4-.74,1.88-.49.48-1.16.72-2.01.72-1.59,0-2.52-.87-2.77-2.61"/>
      <path class="cls-2" d="M364.25,93.78l1.16.18c-.19.87-.54,1.52-1.05,1.96-.51.44-1.13.66-1.88.66-.94,0-1.7-.36-2.29-1.07-.58-.71-.88-1.75-.88-3.09s.29-2.47.88-3.2c.59-.74,1.33-1.1,2.23-1.1s1.58.36,2.15,1.08c.58.72.86,1.77.86,3.14v.37h-4.97c.05.91.26,1.6.63,2.06.38.46.83.7,1.37.7.85,0,1.43-.55,1.76-1.66M360.55,91.56h3.71c-.05-.7-.2-1.23-.45-1.57-.36-.5-.82-.76-1.38-.76-.5,0-.93.21-1.29.63-.36.42-.55.99-.59,1.7"/>
      <path class="cls-2" d="M366.76,96.39v-8.11h1.01v1.13c.22-.42.51-.74.86-.97.35-.23.73-.34,1.15-.34.47,0,.86.12,1.18.36.32.24.55.59.69,1.05.26-.47.57-.82.92-1.06.34-.24.73-.35,1.14-.35.64,0,1.14.22,1.51.65.37.43.55,1.12.55,2.08v5.56h-1.12v-5.11c0-.58-.04-.99-.13-1.23-.09-.24-.22-.43-.41-.56-.19-.13-.4-.2-.64-.2-.49,0-.88.19-1.19.58-.31.38-.46.99-.46,1.81v4.71h-1.12v-5.27c0-.67-.1-1.15-.31-1.42-.21-.28-.49-.41-.85-.41-.51,0-.92.21-1.22.62-.3.41-.45,1.17-.45,2.27v4.21h-1.12Z"/>
      <path class="cls-2" d="M377.36,99.5v-11.21h1.04v1.05c.25-.44.54-.75.84-.95.31-.19.67-.29,1.07-.29.52,0,1,.15,1.42.47.42.31.76.78,1.02,1.42.26.63.39,1.4.39,2.29,0,1.38-.29,2.44-.87,3.19-.58.74-1.26,1.12-2.03,1.12-.35,0-.67-.09-.97-.27-.3-.18-.56-.43-.78-.76v3.95h-1.12ZM378.38,92.38c0,1.05.17,1.82.52,2.32.35.5.77.74,1.27.74s.89-.26,1.26-.77c.36-.51.54-1.31.54-2.38s-.18-1.84-.53-2.35c-.35-.51-.78-.76-1.28-.76-.45,0-.86.27-1.23.82-.37.55-.56,1.34-.56,2.38"/>
      <path class="cls-2" d="M388.95,93.78l1.16.18c-.19.87-.54,1.52-1.05,1.96-.51.44-1.13.66-1.88.66-.94,0-1.7-.36-2.29-1.07-.58-.71-.87-1.75-.87-3.09s.29-2.47.88-3.2c.59-.74,1.33-1.1,2.23-1.1s1.58.36,2.15,1.08c.57.72.86,1.77.86,3.14v.37h-4.97c.05.91.26,1.6.63,2.06.38.46.84.7,1.37.7.84,0,1.43-.55,1.76-1.66M385.25,91.56h3.71c-.05-.7-.2-1.23-.45-1.57-.36-.5-.82-.76-1.38-.76-.5,0-.93.21-1.29.63-.36.42-.55.99-.59,1.7"/>
      <path class="cls-2" d="M390.88,96.39v-1.11l4.24-5.92c-.48.03-.91.05-1.27.05h-2.71v-1.11h5.44v.91l-3.61,5.14-.7.94c.5-.04.98-.07,1.42-.07h3.08v1.18h-5.88Z"/>
      <path class="cls-2" d="M402.12,95.39c-.38.39-.77.69-1.17.88-.41.2-.83.3-1.27.3-.69,0-1.24-.21-1.66-.63-.41-.42-.62-.98-.62-1.69,0-.47.1-.88.29-1.24.19-.36.46-.64.79-.85.34-.2.85-.35,1.53-.45.92-.13,1.59-.29,2.02-.48v-.35c0-.55-.09-.94-.29-1.17-.28-.33-.71-.49-1.29-.49-.52,0-.92.11-1.18.33-.26.22-.45.62-.57,1.22l-1.11-.18c.16-.87.48-1.5.96-1.9.48-.4,1.17-.6,2.07-.6.7,0,1.24.13,1.64.39.4.26.65.59.75.97.1.39.16.95.16,1.69v1.83c0,1.28.02,2.09.07,2.42.05.33.14.66.29.97h-1.18c-.12-.28-.19-.61-.23-1M402.03,92.32c-.41.2-1.03.38-1.84.52-.47.08-.8.17-.99.28-.19.1-.34.25-.44.44-.1.19-.16.41-.16.66,0,.39.12.7.36.93.24.23.57.35.99.35.4,0,.77-.11,1.1-.31.33-.21.57-.49.74-.84.16-.35.25-.86.25-1.52v-.5Z"/>
      <path class="cls-2" d="M404.85,96.39v-8.11h1.01v1.13c.22-.42.51-.74.86-.97.35-.23.73-.34,1.15-.34.47,0,.86.12,1.18.36.32.24.55.59.69,1.05.26-.47.57-.82.92-1.06.34-.24.73-.35,1.14-.35.64,0,1.14.22,1.51.65.37.43.55,1.12.55,2.08v5.56h-1.12v-5.11c0-.58-.04-.99-.13-1.23-.09-.24-.22-.43-.41-.56-.19-.13-.4-.2-.64-.2-.49,0-.88.19-1.19.58-.31.38-.46.99-.46,1.81v4.71h-1.12v-5.27c0-.67-.1-1.15-.31-1.42-.21-.28-.49-.41-.85-.41-.51,0-.92.21-1.22.62-.3.41-.45,1.17-.45,2.27v4.21h-1.12Z"/>
      <path class="cls-2" d="M415.02,92.34c0-1.4.29-2.46.88-3.17.59-.71,1.33-1.07,2.23-1.07s1.63.36,2.22,1.07c.59.71.89,1.74.89,3.08,0,1.46-.29,2.54-.88,3.25-.59.71-1.33,1.07-2.24,1.07s-1.63-.36-2.23-1.07c-.59-.72-.89-1.77-.89-3.16M416.17,92.33c0,1.05.19,1.83.57,2.34.38.51.85.77,1.42.77.53,0,.98-.26,1.36-.77.38-.52.57-1.3.57-2.34s-.19-1.82-.57-2.33c-.38-.51-.85-.77-1.42-.77-.53,0-.99.26-1.37.77-.38.52-.56,1.29-.56,2.33"/>
      <path class="cls-1" d="M73.5,11.22c-19.09-.7-36.16,6.82-52.19,17.45-.86,2.52-1.43,5.3-1.63,8.35,1.96-2.73,4.45-5.25,7.55-7.44,20.63-14.6,43.95-11,51.69-6.2,5.64,3.5,15.75,12.25,13.55,21.25-1.26,5.14-3.92,7.73-7.45,10.13-5.34,3.63-12.69,6.85-20.24,17.87-1.08,1.58-2.17,3.32-3.26,5.25-11.64,20.64-32.6,9.03-39.01,3.58-2.08-1.76-4-4.51-5.53-7.88-1.28-1.39-2.46-2.98-3.49-4.81-5.14-9.07-5.87-20.52-2.83-31.07C-9.53,60.57.8,95.23,26.18,99.63c28.65,4.97,43.89-17.76,48.97-31.81,1.88-5.21,8.53-8.5,15.09-12.52,2.36-1.45,4.71-2.99,6.82-4.75,4.29-3.58,7.6-8.05,8.03-14.48,0-.12.01-.24.02-.36.59-9.69-12-23.77-31.61-24.49"/>
      <path class="cls-1" d="M24.49,70.51c4.46,2.69,9.32,3.25,14.05,2.34,8.57-1.66,16.66-8.2,21-15.9.35-.63.7-1.31,1.03-2.02,8.15-.78,22.37-5.23,19.46-16.79-3.43-13.6-28.05-12.68-39.76-6.31-8.63,4.69-15.63,13.91-18.52,22.34-2.42,7.02-1.99,13.5,2.75,16.35M42.91,31.91c14.1-5.43,25.13-.63,29.35,4.46,4.22,5.09,3.53,11.05-2.91,13.27-7.72,3.15-16.35,1.71-20.07.84.06-.45.04-.89-.03-1.34,2.14-.56,4.29-1.12,6.43-1.69.13.1.27.19.42.26.94.43,2.1.17,2.82-.55.35-.35.54-.78.65-1.25.12-.52.2-1.1.02-1.62-.4-1.11-1.69-1.51-2.76-1.21-.47.14-.9.4-1.22.78-.28.32-.43.7-.53,1.11-2.12.85-4.24,1.7-6.35,2.56-.34-.67-.82-1.27-1.41-1.74.99-2.38,1.98-4.76,2.97-7.14.06-.14.11-.27.17-.41.22-.06.42-.14.62-.26.89-.56,1.38-1.69,1.16-2.72-.11-.52-.39-.97-.81-1.3-.49-.39-1.07-.73-1.7-.77-1.06-.01-1.95.76-2.27,1.73-.32.97-.05,2.03.77,2.65.03.03.07.05.1.07-.82,2.45-1.64,4.9-2.46,7.35-.67-.22-1.37-.29-2.06-.21-.47-1.12-.95-2.24-1.42-3.37.59-.58.59-1.52.14-2.19-.48-.69-1.35-1.36-2.24-1.24-.73.1-1.28.69-1.35,1.42-.09.92.57,1.7,1.32,2.14.13.08.26.13.4.18.6,1.15,1.2,2.3,1.79,3.45-.36.17-.71.39-1.02.67-.98.89-1.47,2.12-1.49,3.38-1.39,0-2.77.01-4.16.02-.24-.29-.56-.5-.91-.65-.62-.25-1.33-.44-2.01-.35-.83.12-1.64.7-1.79,1.57-.07.4.03.82.25,1.15.26.4.68.64,1.11.8.97.36,2.1.54,2.98-.12.21-.16.39-.37.51-.6,1.41-.11,2.82-.21,4.22-.32.04.14.08.28.13.42.46,1.16,1.33,2.15,2.42,2.72-.71,1.34-1.43,2.69-2.14,4.03-.06.12-.12.23-.18.35-.65.2-1.22.7-1.58,1.28-.53.91-.69,2.18-.07,3.09.56.81,1.6,1.07,2.5.68,1.02-.45,1.68-1.51,1.76-2.6.06-.74-.16-1.5-.68-2,.48-1.48.96-2.96,1.44-4.43.36.09.74.15,1.12.14,1.18-.01,2.26-.51,3.07-1.3,1.72.88,5.01,1.86,11.12,1.82-4.69,9.73-16.49,15.24-27.01,10.32-13.04-6.1-4.26-27.54,10.85-33.35"/>
      <path class="cls-3" d="M100.86,6.2C76.43-5.74,46.23,1.03,27.27,14.03c-8.23,5.64-13.91,14.3-16.61,23.67-3.04,10.55-2.31,22,2.83,31.07,1.03,1.82,2.21,3.42,3.49,4.81h0c10.77,11.64,29.56,8.6,42.93,1.96,1.79-.89,3.39-1.87,4.87-2.91,7.55-11.02,14.9-14.24,20.24-17.87-17.32,5.34-26.05,14.99-31.15,16.78-3.55,1.25-9.43,2.63-15.33,1.32-4.72.91-9.59.35-14.05-2.34-4.74-2.85-5.16-9.33-2.75-16.35-.75-2.64-1.36-5.61-1.79-8.97-.37-2.92-.44-5.64-.27-8.17.2-3.05.77-5.83,1.63-8.36C27.8,9.66,50.92,4.98,60.53,3.97c13.13-1.38,36.87,3.26,47.17,21.72,6.79,12.17.98,19.67-10.64,24.86-2.11,1.76-4.46,3.3-6.82,4.75,26.13-4.95,32.73-10.12,32.85-21.97.08-7.74-3.63-18.03-22.23-27.12"/>
    </g>
  </g>
</svg>